<?xml version="1.0" encoding="utf-8"?>
<!-- Generator: Adobe Illustrator 19.0.0, SVG Export Plug-In . SVG Version: 6.00 Build 0)  -->
<svg version="1.1" id="レイヤー_1" xmlns="http://www.w3.org/2000/svg" xmlns:xlink="http://www.w3.org/1999/xlink" x="0px"
	 y="0px" viewBox="-43 46.9 212.7 209.1" style="enable-background:new -43 46.9 212.7 209.1;" xml:space="preserve">
<style type="text/css">
	.st0{fill:#FFD13E;}
</style>
<g id="XMLID_3_">
	<path id="XMLID_4_" class="st0" d="M68.5,57.6c-0.1-0.1-0.2-0.3-0.4-0.7c-0.1-0.2-0.2-0.4-0.3-0.6l-1.5-2.8
		c-0.6-1.2-1.1-1.9-1.2-2.1c-0.3-0.3-0.7-0.4-1.2-0.5c-0.1,0-0.1-0.1-0.1-0.2c0-0.2,0.1-0.3,0.2-0.3c0.8,0.1,1.6,0.2,2.3,0.2
		c0.8,0,1.5,0,2.3,0c0.1,0,0.1,0.1,0.1,0.3c0,0.1-0.1,0.2-0.2,0.2c-0.5,0-0.9,0.1-1,0.2c-0.1,0.1-0.2,0.2-0.2,0.4s0.1,0.6,0.5,1.2
		l1.5,2.8c0.1,0.2,0.2,0.4,0.3,0.6c0.1,0.2,0.2,0.4,0.3,0.5c0.2-0.3,0.4-0.6,0.6-1l1.6-2.6c0.4-0.6,0.6-1,0.6-1.2
		c0-0.2-0.1-0.4-0.3-0.5c-0.2-0.1-0.5-0.2-1-0.2c-0.1,0-0.2-0.1-0.2-0.2c0-0.2,0.1-0.3,0.2-0.3c1.1,0.1,1.8,0.2,2.1,0.2
		c0.1,0,0.8,0,1.9,0c0.1,0,0.1,0.1,0.1,0.3c0,0.1-0.1,0.2-0.2,0.2c-0.5,0-1,0.2-1.3,0.4c-0.2,0.2-0.7,0.8-1.4,1.8l-1.8,2.6
		c-0.3,0.4-0.6,0.8-0.9,1.3l-0.1,0.8l-0.1,2.4c0,1,0,1.7,0.1,1.9s0.6,0.4,1.5,0.5c0.1,0,0.1,0.1,0.1,0.2c0,0.2,0,0.2-0.1,0.2
		c-1-0.1-1.9-0.2-2.4-0.2c-0.7,0-1.4,0-2.2,0c-0.1,0-0.2-0.1-0.2-0.2s0.1-0.2,0.2-0.2c0.7,0,1.1-0.1,1.3-0.4
		c0.2-0.2,0.3-0.9,0.3-2.1l0.1-2.2L68.5,57.6z"/>
	<path id="XMLID_6_" class="st0" d="M80.3,64.1c-0.5,0.3-0.9,0.5-1.4,0.6c-0.4,0.1-0.8,0.1-1.3,0c-0.6-0.1-1.1-0.4-1.5-0.8
		c-0.3-0.4-0.4-0.8-0.3-1.3c0.1-0.7,0.4-1.1,0.9-1.5c0.3-0.2,1.1-0.4,2.3-0.6c0.7-0.1,1.2-0.2,1.5-0.4s0.5-0.4,0.5-0.6l0.1-0.5
		c0.2-1.2-0.1-1.9-0.8-2c-0.5-0.1-0.9,0-1.3,0.2c-0.2,0.2-0.4,0.5-0.5,0.8c0,0.2-0.2,0.4-0.4,0.5c-0.2,0.1-0.5,0.1-0.8,0.1
		c-0.3-0.1-0.5-0.2-0.4-0.6c0.1-0.5,0.5-1,1.3-1.3c0.7-0.3,1.4-0.4,2.2-0.3c0.9,0.2,1.5,0.5,1.8,0.9c0.3,0.4,0.3,1,0.2,1.8l-0.7,3.8
		c-0.2,1,0,1.5,0.4,1.6c0.2,0,0.3,0,0.5-0.1c0.1,0,0.1,0,0.2,0s0.1,0,0.1,0.1s0,0.1,0,0.2c0,0,0,0.1-0.1,0.1
		c-0.5,0.2-0.9,0.3-1.4,0.2C80.8,65.1,80.4,64.7,80.3,64.1z M80.8,60.4C80.6,60.6,80,60.8,79,61c-0.6,0.1-1,0.3-1.3,0.6
		c-0.2,0.2-0.4,0.5-0.5,0.9c-0.1,0.4,0,0.8,0.3,1.1c0.2,0.3,0.5,0.4,0.8,0.5c0.6,0.1,1,0,1.4-0.3c0.3-0.2,0.5-0.5,0.6-0.9L80.8,60.4
		z"/>
	<path id="XMLID_9_" class="st0" d="M87,62c0.5-0.2,0.8-0.4,1.1-0.6l1.2-0.7c0.6-0.4,1-0.6,1-0.8c0.1-0.2-0.2-0.4-0.7-0.5
		c-0.1,0-0.1-0.1-0.1-0.3c0-0.1,0.1-0.2,0.2-0.2c0.3,0.1,0.9,0.3,1.6,0.4c0.5,0.1,1,0.3,1.5,0.3c0.1,0,0.1,0.1,0.1,0.2
		c0,0.1-0.1,0.2-0.2,0.2c-0.4-0.1-0.7-0.1-1,0c-0.3,0.1-0.8,0.3-1.6,0.7L89,61.3c-0.4,0.2-0.7,0.4-0.9,0.5c0.7,1.4,1.3,2.6,1.9,3.7
		c0.3,0.5,0.5,0.8,0.8,1c0.1,0.1,0.4,0.3,0.8,0.4c0.1,0,0.1,0.1,0.1,0.3c0,0.1-0.1,0.2-0.2,0.1c-0.7-0.2-1.1-0.4-1.4-0.4
		c-0.4-0.1-0.8-0.2-1-0.3c-0.2-0.4-0.3-0.8-0.4-1C88,64.3,87.4,63.1,87,62l-0.4,1.3c-0.3,1.1-0.4,1.7-0.4,1.8c0,0.2,0.4,0.4,0.9,0.6
		c0.1,0,0.1,0.1,0.1,0.2s-0.1,0.2-0.2,0.2c-0.7-0.2-1.3-0.4-1.6-0.5c-0.4-0.1-1-0.3-1.8-0.4c-0.1,0-0.1-0.1-0.1-0.2s0.1-0.2,0.2-0.2
		c0.5,0.1,0.9,0.1,1-0.1c0.1-0.1,0.4-0.7,0.6-1.7l2-7.7c0.2-0.8,0.3-1.3,0.2-1.5c-0.1-0.3-0.2-0.4-0.4-0.5l-0.6-0.1
		c-0.1,0-0.1-0.1-0.1-0.3c0-0.1,0.1-0.2,0.3-0.2c0.7,0,1.6,0,2.5-0.1c0.1,0,0.2,0.1,0.2,0.2c-0.4,1.3-0.8,2.7-1.2,4.1L87,62z"/>
	<path id="XMLID_11_" class="st0" d="M95.2,63.4c0.2-0.7,0.4-1.2,0.4-1.4c0-0.3-0.1-0.4-0.4-0.5l-0.6-0.2c-0.1,0-0.1-0.1-0.1-0.3
		c0-0.1,0.1-0.2,0.3-0.2c0.9,0.1,1.8,0.1,2.5,0.1c0.1,0,0.2,0.1,0.1,0.2c-0.4,1.1-0.8,2-1.1,2.9l-0.7,2.1c-0.4,1-0.5,1.6-0.5,1.8
		s0.3,0.4,0.9,0.6c0.1,0,0.1,0.1,0.1,0.2c-0.1,0.1-0.1,0.2-0.2,0.2c-0.7-0.3-1.2-0.5-1.6-0.6c-0.5-0.2-1.1-0.4-1.7-0.6
		c-0.1,0-0.1-0.1-0.1-0.3c0-0.1,0.1-0.2,0.2-0.1c0.5,0.1,0.9,0.1,1,0s0.4-0.7,0.7-1.7L95.2,63.4z M98.3,56.1
		c0.3,0.1,0.4,0.3,0.6,0.6c0.1,0.3,0.1,0.5,0,0.7c-0.1,0.3-0.3,0.5-0.6,0.6c-0.2,0.1-0.5,0.1-0.7,0c-0.3-0.1-0.5-0.3-0.6-0.6
		c-0.1-0.2-0.1-0.5,0-0.7c0.1-0.3,0.3-0.4,0.6-0.6C97.8,56,98.1,56,98.3,56.1z"/>
	<path id="XMLID_14_" class="st0" d="M102,64.5c1.1-0.7,2.2-0.8,3.2-0.4c0.7,0.3,1.2,0.8,1.4,1.4s0.2,1.2-0.1,1.9l-0.8,1.8l-0.5,1
		c-0.4,1-0.6,1.6-0.6,1.7c0,0.2,0.3,0.4,0.7,0.7c0.1,0.1,0.1,0.1,0.1,0.2c-0.1,0.1-0.1,0.2-0.2,0.1c-0.6-0.3-1.1-0.5-1.5-0.7
		c-0.4-0.2-1-0.4-1.7-0.7c-0.1,0-0.1-0.1-0.1-0.2s0.1-0.1,0.2-0.1c0.5,0.2,0.8,0.2,1,0.1s0.5-0.6,0.9-1.6l1.1-2.5
		c0.2-0.4,0.3-0.7,0.2-1c0-0.7-0.4-1.2-1-1.5c-0.7-0.3-1.3-0.2-2.1,0.2c-0.4,0.2-0.7,0.6-0.9,1.1l-0.9,2.1c-0.4,1-0.7,1.6-0.6,1.7
		c0,0.1,0.1,0.2,0.2,0.3c0.1,0.1,0.3,0.2,0.6,0.4c0.1,0.1,0.1,0.1,0,0.2c-0.1,0.1-0.1,0.2-0.2,0.1c-0.6-0.3-1.2-0.6-1.5-0.7
		c-0.4-0.2-1-0.4-1.7-0.7c-0.1,0-0.1-0.1,0-0.2c0-0.1,0.1-0.1,0.2-0.1c0.5,0.2,0.8,0.2,1,0.1c0.2-0.1,0.5-0.6,0.9-1.6l1-2.3
		c0.3-0.7,0.5-1.1,0.5-1.4c0-0.3-0.1-0.5-0.3-0.6l-0.6-0.2c-0.1,0-0.1-0.2,0-0.3c0-0.1,0.1-0.1,0.3-0.1c0.7,0.2,1.5,0.3,2.4,0.3
		c0.1,0.1,0.2,0.1,0.1,0.2C102.3,63.8,102.1,64.2,102,64.5z"/>
	<path id="XMLID_16_" class="st0" d="M109.8,69.9c0.4-0.7,0.6-1.1,0.6-1.4c0-0.3-0.1-0.5-0.3-0.6l-0.6-0.3c-0.1,0-0.1-0.1,0-0.3
		c0.1-0.1,0.2-0.1,0.3-0.1c0.9,0.3,1.7,0.4,2.4,0.5c0.1,0.1,0.2,0.2,0.1,0.2c-0.6,1-1.1,1.9-1.6,2.7l-1.1,2c-0.5,1-0.8,1.5-0.8,1.7
		c0,0.2,0.3,0.4,0.8,0.8c0.1,0.1,0.1,0.1,0,0.2s-0.2,0.2-0.2,0.1c-0.6-0.4-1.1-0.7-1.5-0.9c-0.5-0.3-1-0.5-1.6-0.9
		c-0.1,0-0.1-0.1,0-0.3c0.1-0.1,0.1-0.1,0.2-0.1c0.5,0.2,0.8,0.3,1,0.2c0.1-0.1,0.5-0.6,1-1.6L109.8,69.9z M114.2,63.2
		c0.2,0.1,0.4,0.4,0.5,0.7s0,0.5-0.1,0.7c-0.1,0.3-0.4,0.4-0.7,0.5c-0.3,0.1-0.5,0-0.7-0.1s-0.4-0.4-0.5-0.7c-0.1-0.3,0-0.5,0.1-0.7
		c0.1-0.2,0.4-0.4,0.7-0.5C113.7,63.1,114,63.1,114.2,63.2z"/>
	<path id="XMLID_19_" class="st0" d="M114.8,73.9c0.5-0.1,0.9-0.2,1.3-0.2l1.4-0.3c0.7-0.1,1.1-0.3,1.2-0.4c0.1-0.2,0-0.4-0.5-0.7
		c-0.1-0.1-0.1-0.1,0-0.3c0.1-0.1,0.2-0.1,0.2-0.1c0.3,0.2,0.8,0.5,1.4,1c0.5,0.3,0.9,0.6,1.3,0.8c0.1,0.1,0.1,0.1,0,0.3
		c-0.1,0.1-0.2,0.1-0.2,0.1c-0.4-0.2-0.7-0.3-1-0.3s-0.9,0-1.8,0.2l-1.2,0.2c-0.5,0.1-0.8,0.1-1,0.2c0.2,1.5,0.4,2.9,0.6,4.1
		c0.1,0.6,0.2,1,0.4,1.2c0.1,0.2,0.3,0.4,0.6,0.6c0.1,0.1,0.1,0.2,0,0.3c-0.1,0.1-0.2,0.1-0.2,0.1c-0.6-0.4-1-0.7-1.2-0.8
		c-0.4-0.2-0.7-0.4-0.9-0.6c0-0.5,0-0.8-0.1-1c-0.2-1.4-0.4-2.8-0.6-4.1l-0.7,1.1c-0.6,0.9-0.9,1.4-0.9,1.6c0,0.2,0.2,0.5,0.7,0.8
		c0.1,0.1,0.1,0.2,0,0.3s-0.1,0.1-0.2,0.1c-0.6-0.4-1.1-0.8-1.4-1c-0.4-0.3-0.9-0.6-1.5-1c-0.1-0.1-0.1-0.1,0-0.2s0.2-0.1,0.2-0.1
		c0.5,0.3,0.8,0.3,1,0.2s0.6-0.6,1.1-1.4l4.4-6.6c0.4-0.7,0.7-1.1,0.7-1.3c0-0.3,0-0.4-0.2-0.5l-0.5-0.3c-0.1-0.1-0.1-0.2,0-0.3
		s0.2-0.1,0.3-0.1c0.7,0.3,1.5,0.5,2.4,0.7c0.1,0.1,0.1,0.1,0.1,0.2c-0.8,1.1-1.6,2.3-2.4,3.5L114.8,73.9z"/>
	<path id="XMLID_21_" class="st0" d="M122.6,85.3c-0.1-0.1-0.1-0.2,0-0.2c0.4-0.5,0.7-0.8,1-1.1c-1.2,0.4-2.2,0.3-3.1-0.5
		c-0.6-0.5-1-1.1-1-1.8c0-0.6,0.2-1.2,0.6-1.7c0.5-0.6,0.9-1.1,1.2-1.5l0.8-1c0.5-0.6,0.8-1,0.8-1.2c0.1-0.3,0-0.5-0.2-0.6l-0.5-0.3
		c-0.1-0.1-0.1-0.2,0-0.3s0.2-0.1,0.3,0c0.7,0.4,1.4,0.8,2.1,1.1c0.1,0.1,0.1,0.2,0,0.2c-0.7,0.8-1.3,1.5-2,2.3l-1.1,1.4
		c-0.5,0.6-0.7,1-0.8,1.3c-0.2,0.7,0,1.2,0.6,1.7c0.5,0.4,1.2,0.6,2,0.4c0.3-0.1,0.5-0.2,0.6-0.3c0.1-0.1,0.3-0.3,0.5-0.5l1.5-1.9
		c0.5-0.6,0.8-1,0.8-1.2c0.1-0.3,0-0.5-0.2-0.6l-0.5-0.3c-0.1-0.1-0.1-0.2,0-0.3s0.2-0.1,0.3-0.1c0.8,0.5,1.5,0.9,2.1,1.1
		c0.1,0.1,0.1,0.2,0,0.3c-0.6,0.7-1.3,1.5-2,2.3l-1.5,1.8c-0.7,0.8-1,1.3-1,1.5c0,0.2,0.1,0.4,0.4,0.7l0.2,0.2
		c0.1,0.1,0.1,0.2,0,0.3s-0.2,0.1-0.3,0.1C124,86.1,123.3,85.7,122.6,85.3z"/>
	<path id="XMLID_23_" class="st0" d="M146.3,91.8c0.2,0.3,0.6,0.7,0.9,1.2c0.3,0.4,0.7,0.9,1.2,1.4c0.1,0.1,0,0.2-0.1,0.3
		s-0.2,0.1-0.3,0c-0.5-0.6-0.9-0.8-1.2-0.8s-0.7,0.3-1.2,0.7c-0.1,0.1-0.1,0.1-0.2,0.1l-5.4,4.4c-0.7,0.6-1.2,1-1.4,1.2
		c-0.1,0.2-0.2,0.3-0.3,0.5c0,0.2,0,0.3,0.1,0.5c0.1,0.2,0.2,0.5,0.5,0.8c0.1,0.1,0,0.2-0.1,0.3c-0.1,0.1-0.2,0.1-0.3,0
		c-0.6-0.8-1.1-1.4-1.5-1.9s-0.9-1.1-1.5-1.7c-0.1-0.1,0-0.1,0.1-0.2c0.1-0.1,0.2-0.1,0.3,0c0.5,0.6,0.9,0.8,1.2,0.8
		s0.7-0.3,1.4-0.9l6.5-5.3l-0.1-0.2l-6.6,1.8c-1.4,0.4-3,0.8-4.7,1.3c-0.1,0-0.2,0-0.3-0.1s-0.1-0.1,0-0.3c0.9-1.5,1.6-2.8,2.1-3.9
		l3.3-6.4l-0.1-0.2l-6,4.7c-0.1,0.1-0.2,0.1-0.2,0.2c-0.8,0.7-1.3,1.2-1.4,1.5c0,0.2,0,0.3,0,0.5c0.1,0.2,0.2,0.4,0.5,0.8
		c0.1,0.1,0,0.2-0.1,0.3s-0.2,0.1-0.3,0c-0.5-0.7-0.9-1.2-1.2-1.6c-0.4-0.4-0.8-0.9-1.3-1.5c-0.1-0.1,0-0.2,0.1-0.3
		c0.1-0.1,0.2-0.1,0.3,0c0.5,0.5,0.8,0.7,1.1,0.7s0.5-0.1,0.8-0.3c0.3-0.2,0.7-0.5,1.3-0.9l5.7-4.4l0.1-0.1c0.5-0.4,0.8-0.7,0.8-0.9
		c0.1-0.3-0.1-0.7-0.5-1.4c-0.1-0.1,0-0.2,0.1-0.3c0.2-0.1,0.3-0.1,0.3-0.1c0.5,0.8,0.9,1.3,1.2,1.5c0.4,0.5,0.7,0.9,1,1.2
		c-0.4,0.6-0.8,1.2-1.1,1.8l-3,5.6c-0.2,0.3-0.4,0.7-0.7,1.3c-0.3,0.6-0.5,0.9-0.6,1.1c1.3-0.4,2.1-0.6,2.6-0.7l5.8-1.7
		C144.8,92.4,145.5,92.1,146.3,91.8z"/>
	<path id="XMLID_25_" class="st0" d="M154,103.3c1,1.8,1.1,3.5,0.5,5.3c-0.6,1.5-1.6,2.7-3.2,3.6c-1.8,1-3.6,1.2-5.4,0.6
		c-1.6-0.5-2.8-1.6-3.6-3.1c-1-1.8-1.1-3.5-0.5-5.3c0.6-1.5,1.6-2.7,3.2-3.6c1.8-1,3.6-1.2,5.4-0.6
		C151.9,100.7,153.1,101.7,154,103.3z M153.4,103.6c-0.7-1.3-1.8-2-3.4-2.2c-1.3-0.2-2.7,0.2-4.2,1c-1.7,0.9-2.8,2.1-3.3,3.6
		c-0.4,1.2-0.3,2.4,0.3,3.5c0.7,1.3,1.8,2.1,3.4,2.2c1.3,0.2,2.7-0.2,4.2-1c1.7-0.9,2.8-2.1,3.3-3.6
		C154.1,105.8,154,104.7,153.4,103.6z"/>
	<path id="XMLID_28_" class="st0" d="M160.3,118c0.8,2.3,0.8,4.3,0,5.9c-0.7,1.4-1.9,2.4-3.6,3c-2,0.7-3.8,0.5-5.4-0.5
		c-1.4-0.9-2.5-2.3-3.2-4.4c-0.2-0.5-0.4-1.1-0.5-1.6c-0.2-0.6-0.3-1.1-0.5-1.6c-0.2-0.6-0.5-1.3-0.8-2c0-0.1,0-0.2,0.2-0.2
		c0.1,0,0.2,0,0.3,0.1c0.3,0.7,0.6,1.1,0.9,1.2c0.2,0.1,1-0.1,2.3-0.6l6-2.1c1.2-0.4,1.9-0.7,2.1-0.9c0.2-0.2,0.1-0.7-0.1-1.6
		c0-0.1,0-0.2,0.1-0.2c0.2-0.1,0.3,0,0.3,0.1c0.3,0.9,0.5,1.6,0.7,2.1c0.2,0.4,0.3,0.9,0.6,1.5C160.1,117.3,160.3,117.9,160.3,118z
		 M156.4,116.5l-6.4,2.2c-0.9,0.3-1.4,0.6-1.5,0.8c-0.2,0.4-0.2,1.1,0.2,2.2c0.6,1.8,1.7,3,3.2,3.5c1.3,0.5,2.7,0.4,4.2-0.1
		c1.8-0.6,3-1.7,3.6-3.1c0.5-1.2,0.5-2.6,0-4c-0.5-1.3-0.9-2-1.2-2.1C158.2,116,157.5,116.1,156.4,116.5z"/>
	<path id="XMLID_31_" class="st0" d="M152.6,139.6c-0.3-1.7-0.5-3.1-0.7-4.4c-0.3-1.4-0.6-2.9-1-4.5c0-0.1,0.1-0.2,0.2-0.2
		c0.1,0,0.2,0,0.3,0.1c0.1,0.5,0.3,0.8,0.3,0.9c0.1,0.1,0.2,0.2,0.3,0.3c0.2,0.1,1,0,2.4-0.2l6.2-1.2c0.9-0.2,1.5-0.3,1.8-0.4
		c0.2-0.1,0.3-0.1,0.5-0.2c0.2-0.2,0.2-0.7,0.1-1.5c0-0.1,0.1-0.2,0.2-0.2c0.2,0,0.3,0,0.3,0.1c0.2,1.2,0.4,2.7,0.8,4.4
		c0.3,1.6,0.6,3,0.9,4.3c-1.5,0.4-2.4,0.7-2.7,0.8h-0.1c-0.1,0-0.2-0.1-0.2-0.3c0-0.1,0-0.1,0.1-0.2c0.7-0.4,1.2-0.9,1.5-1.5
		c0.3-0.5,0.3-1.4,0-2.8c-0.2-0.8-0.4-1.3-0.7-1.5c-0.2-0.1-0.7-0.1-1.5,0.1l-3.1,0.6c0,0.2,0.1,0.6,0.2,1.1c0.2,1.3,0.5,2,0.8,2.3
		c0.3,0.3,0.7,0.4,1.2,0.3c0.1,0,0.2,0,0.2,0.2c0,0.2,0,0.3-0.1,0.3c-0.8,0.1-1.4,0.2-1.7,0.3c-0.5,0.1-1.2,0.2-2,0.4
		c-0.1,0-0.2-0.1-0.2-0.2s0-0.2,0.1-0.2c0.6-0.2,1-0.4,1.2-0.8s0.1-1.1-0.1-2.4c-0.1-0.4-0.2-0.7-0.3-1.1l-3.1,0.6
		c-1.2,0.2-1.8,0.4-2.1,0.7c-0.2,0.2-0.3,0.4-0.3,0.6c0,0.3,0,0.7,0.1,1.2c0.2,0.9,0.4,1.5,0.6,2c0.2,0.4,0.4,0.7,0.7,1
		c0.4,0.4,1.1,0.7,2,1c0.1,0,0.1,0.1,0.1,0.1c0,0.2,0,0.3-0.1,0.4h-0.1C154.7,139.9,153.7,139.8,152.6,139.6z"/>
	<path id="XMLID_33_" class="st0" d="M159.2,144.3l-2.9,0.2c-0.9,0.1-1.5,0.1-1.8,0.1c-0.2,0-0.4,0.1-0.5,0.2
		c-0.2,0.2-0.3,0.6-0.4,1.4c0,0.1-0.1,0.2-0.2,0.2c-0.2,0-0.2,0-0.2-0.2c0-1,0-1.8-0.1-2.3c0-0.6-0.1-1.4-0.2-2.3
		c0-0.1,0.1-0.2,0.2-0.2c0.1,0,0.2,0,0.2,0.1c0.1,0.8,0.3,1.2,0.5,1.3c0.3,0.1,1.1,0.2,2.4,0.1l6.6-0.4c0.8,0,1.3-0.1,1.5-0.1
		s0.3-0.1,0.4-0.2c0.1-0.1,0.2-0.2,0.3-0.5c0-0.2,0.1-0.6,0.1-1.1c0-0.1,0.1-0.1,0.2-0.2c0.2,0,0.3,0,0.3,0.1c0,1,0,1.8,0.1,2.4
		c0,0.2,0,0.6,0.1,1.2c0.1,0.5,0.1,1.1,0.2,1.7c0.1,1.6-0.2,2.8-0.8,3.6c-0.5,0.7-1.2,1-2.2,1.1c-0.8,0-1.5-0.2-2.1-0.7
		c-0.5-0.5-1-1.1-1.3-2c-1.4,0.8-2.8,1.7-4.2,2.7c-0.7,0.5-1.1,0.9-1.2,1.2c-0.1,0.2-0.2,0.6-0.2,1.1c0,0.1-0.1,0.2-0.2,0.2
		c-0.2,0-0.2,0-0.2-0.1c0-0.9,0-1.4,0-1.7c0-0.5-0.1-0.9-0.1-1.2c0.3-0.1,0.7-0.4,1.3-0.7c1.3-0.9,2.8-1.8,4.6-2.9
		c0-0.3-0.1-0.6-0.1-0.9C159.2,145.2,159.2,144.8,159.2,144.3z M159.9,144.3c0,0.4,0,0.9,0,1.3c0.1,1.2,0.4,2.2,1,2.8
		c0.5,0.5,1.2,0.7,2,0.7c1.8-0.1,2.7-1.2,2.5-3.4c0-0.8-0.2-1.3-0.4-1.5c-0.2-0.1-0.9-0.2-2.1-0.1L159.9,144.3z"/>
	<path id="XMLID_36_" class="st0" d="M164.2,157.1v-0.2l-7.6-0.6c-1.3-0.1-2.1-0.1-2.4,0.1c-0.3,0.1-0.4,0.6-0.6,1.3
		c0,0.1-0.1,0.1-0.2,0.1c-0.1,0-0.2-0.1-0.2-0.2c0-0.2,0-0.4,0.1-0.7c0.1-0.6,0.1-1.1,0.2-1.3c0-0.2,0.1-0.9,0.1-2.1
		c0-0.1,0.1-0.2,0.2-0.2c0.1,0,0.2,0.1,0.2,0.2c0,0.7,0.1,1.1,0.4,1.3c0.3,0.2,1.1,0.4,2.3,0.5l6.6,0.7c1,0.1,1.6,0.1,1.9-0.1
		c0.3-0.2,0.5-0.7,0.7-1.4c0-0.1,0.1-0.2,0.2-0.2c0.2,0,0.3,0.1,0.3,0.2c-0.1,0.6-0.2,1.2-0.2,1.7c0,0.6-0.1,1.1-0.1,1.6
		c-0.7,0.3-1.4,0.7-2.3,1.2l-6.3,3.6c-1.2,0.7-2,1.2-2.6,1.5l2.2,0.2l5.2,0.4c1.2,0.1,2,0.1,2.3-0.1c0.2-0.1,0.4-0.6,0.5-1.3
		c0-0.1,0.1-0.2,0.2-0.1c0.2,0,0.3,0.1,0.3,0.2c-0.1,1-0.2,1.6-0.2,2c0,0.5-0.1,1.2-0.1,2c0,0.1-0.1,0.2-0.3,0.1
		c-0.1,0-0.2-0.1-0.2-0.2c0-0.7-0.1-1.1-0.3-1.3c-0.3-0.2-1-0.4-2.2-0.5l-6.3-0.7c-0.4,0-0.7-0.1-0.9-0.1c-0.5,0-1.3-0.1-2.2-0.2
		c-0.3-0.5-0.4-0.8-0.4-0.8s0-0.1,0.1-0.1c1-0.5,2.1-1.1,3.3-1.8L164.2,157.1z"/>
	<path id="XMLID_38_" class="st0" d="M159.8,187.6c-0.7-0.2-1.6-0.4-2.7-0.7l0,0c-0.1,0-0.1-0.1,0-0.3c0-0.1,0.1-0.1,0.2-0.1
		c0.9,0,1.7-0.2,2.3-0.6c0.5-0.3,0.9-0.8,1.1-1.4c0.2-0.7,0.2-1.3-0.1-1.9c-0.3-0.5-0.7-0.8-1.3-1c-1-0.3-1.9,0-2.9,1.1l-0.7,0.7
		c-1,1-1.8,1.7-2.6,1.9c-0.7,0.2-1.4,0.2-2.1,0c-1.2-0.4-2-1.1-2.3-2.1c-0.3-0.9-0.3-2,0.1-3.2c0.3-0.9,0.8-1.8,1.6-2.8
		c0.8,0,1.7,0.1,2.7,0.3h0.1c0.1,0,0.1,0.1,0.1,0.3c0,0.1-0.1,0.1-0.2,0.1c-1,0-1.9,0.3-2.7,0.8c-0.6,0.4-1,0.9-1.3,1.6
		c-0.3,0.8-0.2,1.6,0.1,2.2c0.3,0.6,0.8,0.9,1.4,1.2c0.7,0.2,1.3,0.2,1.9,0c0.5-0.2,1.2-0.7,1.9-1.4l0.7-0.7
		c0.8-0.8,1.6-1.3,2.3-1.5c0.6-0.2,1.2-0.1,1.9,0.1c0.9,0.3,1.6,0.9,1.9,1.9c0.3,0.8,0.3,1.7-0.1,2.7c-0.2,0.5-0.4,0.9-0.7,1.3
		c-0.2,0.3-0.4,0.6-0.5,1C159.8,187.2,159.8,187.4,159.8,187.6z"/>
	<path id="XMLID_40_" class="st0" d="M151,188.8c0.7,0.3,1.2,0.4,1.4,0.5c0.3,0,0.4-0.1,0.5-0.3l0.2-0.6c0-0.1,0.1-0.1,0.3,0
		c0.1,0,0.1,0.1,0.1,0.3c-0.2,0.9-0.3,1.7-0.3,2.5c-0.1,0.1-0.1,0.2-0.2,0.1c-1-0.5-2-0.9-2.8-1.3l-2.1-0.9c-1-0.4-1.6-0.7-1.7-0.6
		c-0.2,0-0.4,0.3-0.7,0.9c-0.1,0.1-0.1,0.1-0.2,0.1c-0.1-0.1-0.2-0.1-0.2-0.2c0.3-0.7,0.5-1.2,0.7-1.6c0.2-0.5,0.4-1.1,0.7-1.7
		c0-0.1,0.1-0.1,0.3,0c0.1,0,0.1,0.1,0.1,0.2c-0.2,0.5-0.2,0.9-0.1,1c0.1,0.1,0.6,0.4,1.6,0.9L151,188.8z M158.1,192.5
		c-0.1,0.2-0.3,0.4-0.6,0.5s-0.5,0.1-0.7,0c-0.3-0.1-0.5-0.3-0.6-0.6s-0.1-0.5,0-0.7c0.1-0.3,0.3-0.4,0.6-0.5s0.5-0.1,0.7,0
		s0.4,0.3,0.5,0.6C158.2,192,158.2,192.3,158.1,192.5z"/>
	<path id="XMLID_43_" class="st0" d="M149.4,195.6c0.6,1.2,0.7,2.2,0.2,3.2c-0.4,0.7-0.9,1.1-1.5,1.3s-1.2,0.1-1.8-0.2l-1.7-1
		l-1-0.5c-0.9-0.5-1.5-0.8-1.7-0.7c-0.2,0-0.4,0.2-0.7,0.7c-0.1,0.1-0.2,0.1-0.3,0s-0.1-0.1-0.1-0.2c0.4-0.6,0.6-1.1,0.8-1.5
		s0.5-0.9,0.8-1.6c0-0.1,0.1-0.1,0.2,0c0.1,0.1,0.1,0.1,0.1,0.2c-0.2,0.4-0.3,0.8-0.2,1s0.6,0.5,1.5,1l2.4,1.3
		c0.4,0.2,0.7,0.3,1,0.3c0.7,0,1.2-0.3,1.5-0.9c0.3-0.6,0.3-1.3,0-2.1c-0.2-0.4-0.5-0.7-1-1l-2-1.1c-1-0.5-1.5-0.8-1.7-0.8
		c-0.1,0-0.2,0.1-0.3,0.2c-0.1,0.1-0.2,0.3-0.4,0.6c-0.1,0.1-0.1,0.1-0.2,0c-0.1-0.1-0.1-0.1-0.1-0.2c0.4-0.6,0.6-1.1,0.8-1.5
		s0.5-1,0.8-1.6c0-0.1,0.1-0.1,0.2,0c0.1,0.1,0.1,0.1,0.1,0.2c-0.2,0.5-0.2,0.8-0.2,1c0.1,0.2,0.6,0.5,1.5,1l2.2,1.2
		c0.7,0.4,1.1,0.5,1.4,0.6c0.3,0,0.5-0.1,0.6-0.3l0.3-0.6c0.1-0.1,0.2-0.1,0.3,0s0.1,0.2,0.1,0.3c-0.2,0.7-0.4,1.5-0.5,2.4
		c-0.1,0.1-0.1,0.1-0.2,0.1C150.1,196,149.7,195.7,149.4,195.6z"/>
	<path id="XMLID_45_" class="st0" d="M144.5,207c-0.4,0.6-0.9,1.1-1.5,1.5c-0.4,0.3-0.7,0.3-1,0.1s-0.5-0.4-0.6-0.6
		c-0.1-0.2-0.1-0.3,0-0.5s0.5-0.3,1.1-0.3h0.2c0.6,0,1-0.2,1.3-0.6c0.4-0.6,0.4-1.2,0.1-2c-0.3-0.7-0.9-1.3-1.8-1.9
		c-0.9-0.6-1.8-0.8-2.7-0.7c-0.7,0.1-1.2,0.4-1.6,0.9c-0.3,0.5-0.5,1-0.6,1.4c0,0.4,0,0.8,0.2,1.3c0,0.1,0,0.1,0,0.2
		c0,0.1-0.1,0.1-0.2,0.1c-0.1,0-0.1,0-0.2,0c0,0,0,0-0.1-0.1c-0.6-1.3-0.5-2.5,0.3-3.6c0.7-1,1.5-1.5,2.7-1.6c1-0.1,2,0.2,2.9,0.8
		c1.1,0.8,1.8,1.7,2,2.9C145.2,205.3,145,206.2,144.5,207z"/>
	<path id="XMLID_47_" class="st0" d="M137.9,210.1c-0.2-0.2-0.4-0.4-0.5-0.5c-0.8-0.7-1.7-1-2.6-0.9c-0.8,0-1.3,0.3-1.7,0.8
		c-0.7,0.8-0.9,1.7-0.6,2.7c0,0.1,0,0.1,0,0.1c0,0.1-0.1,0.1-0.2,0.1c-0.1,0-0.1,0-0.2,0c0,0-0.1-0.1-0.1-0.2
		c-0.4-1.3-0.2-2.4,0.6-3.4c0.8-0.9,1.7-1.4,2.8-1.4c1,0,1.9,0.3,2.8,1.1c1,0.8,1.6,1.8,1.7,3c0.1,1-0.2,1.9-0.8,2.7
		c-0.6,0.7-1.4,1.1-2.3,1.2c-0.8,0-1.5-0.2-2.2-0.7c-0.1-0.1-0.1-0.1-0.1-0.2c0-0.1,0-0.1,0-0.2c0.8-0.9,1.6-1.8,2.3-2.7
		C137.3,210.8,137.7,210.4,137.9,210.1z M138.3,210.6c-0.2,0.3-0.6,0.6-1,1.1c-0.5,0.6-1,1.2-1.4,1.8c-0.1,0.1-0.1,0.2,0.1,0.3
		c0.5,0.4,1.1,0.5,1.6,0.5s0.8-0.2,1.1-0.6c0.3-0.4,0.5-0.9,0.4-1.5C139,211.7,138.8,211.1,138.3,210.6z"/>
	<path id="XMLID_50_" class="st0" d="M121.3,220.4c0.9-0.7,1.7-1.5,2.6-2.2c0.8-0.8,1.7-1.5,2.5-2.3c0.1-0.1,0.2-0.1,0.4,0.1
		c0.1,0.1,0.2,0.3,0.2,0.4c0.3,2.1,0.4,4,0.5,5.7v0.5c0,1.3,0.1,2.3,0.4,3c0.2,0.5,0.4,1,0.8,1.4c0.6,0.6,1.1,1,1.7,1
		c0.5,0,0.9-0.1,1.3-0.5c0.6-0.5,0.8-1.2,0.6-1.9c-0.1-0.3-0.3-0.6-0.7-1.1c-0.2-0.2-0.2-0.4-0.1-0.7c0.1-0.3,0.2-0.5,0.5-0.7
		s0.6-0.2,0.8,0.1c0.5,0.6,0.7,1.4,0.5,2.4c-0.2,0.9-0.6,1.7-1.2,2.3c-0.8,0.7-1.7,1.1-2.6,1.1c-0.8,0-1.5-0.4-2.1-1
		c-0.5-0.6-0.8-1.2-0.9-1.8c-0.1-0.6-0.1-1.5,0-2.6l0.1-0.7c0.2-2.1,0.2-3.9,0-5.3l-2.2,2c-0.6,0.5-1,0.9-1.2,1.2
		c-0.2,0.2-0.3,0.4-0.3,0.6c-0.1,0.4,0,1,0.2,1.7c0,0.1,0,0.1,0,0.2c-0.1,0.1-0.1,0.1-0.2,0.1c-0.1,0-0.1,0-0.2,0l-0.1-0.1
		C122.1,222.1,121.7,221.2,121.3,220.4z"/>
	<path id="XMLID_52_" class="st0" d="M123.7,234.7c-1,0.7-2.1,0.7-3.4,0.2c-1.2-0.5-2.4-1.6-3.6-3.2c-1.3-1.8-2-3.5-1.9-4.9
		c0-1.2,0.4-2.1,1.3-2.7c1-0.8,2.2-0.8,3.5-0.2c1.2,0.5,2.3,1.6,3.5,3.2c1.3,1.9,2,3.5,2,5C125,233.1,124.5,234,123.7,234.7z
		 M123.3,234.2c1.3-0.9,0.7-3-1.6-6.2c-1.3-1.8-2.4-3-3.4-3.5c-0.7-0.4-1.4-0.4-2,0c-0.6,0.5-0.8,1.2-0.5,2.2s1,2.3,2.1,3.9
		C120.3,233.9,122.1,235.1,123.3,234.2z"/>
	<path id="XMLID_55_" class="st0" d="M105.6,230.8c1-0.5,2-1.1,3-1.6c1-0.6,2-1.1,2.9-1.7c0.1-0.1,0.2,0,0.4,0.2
		c0.1,0.1,0.1,0.3,0.1,0.5c-0.2,2.1-0.4,4-0.7,5.6l-0.1,0.5c-0.3,1.3-0.4,2.3-0.3,3c0,0.5,0.2,1,0.5,1.5c0.4,0.7,0.9,1.2,1.5,1.4
		c0.5,0.1,0.9,0.1,1.4-0.2c0.7-0.4,1.1-1,1-1.7c0-0.3-0.2-0.7-0.5-1.2c-0.1-0.2-0.1-0.5,0.1-0.7c0.1-0.2,0.3-0.4,0.6-0.6
		c0.3-0.2,0.6-0.1,0.8,0.3c0.4,0.7,0.4,1.5,0,2.5c-0.4,0.9-0.9,1.5-1.7,2c-0.9,0.5-1.9,0.7-2.8,0.5c-0.8-0.2-1.4-0.7-1.9-1.4
		c-0.4-0.7-0.6-1.3-0.5-2c0-0.6,0.2-1.5,0.6-2.5l0.2-0.7c0.7-2,1-3.7,1.1-5.2l-2.6,1.5c-0.7,0.4-1.1,0.7-1.4,0.9
		c-0.2,0.2-0.3,0.3-0.4,0.6c-0.2,0.4-0.2,1-0.2,1.7c0,0.1,0,0.1-0.1,0.2c-0.1,0-0.2,0.1-0.2,0.1c-0.1,0-0.1,0-0.1,0v-0.1
		C106,232.7,105.8,231.7,105.6,230.8z"/>
	<path id="XMLID_57_" class="st0" d="M97,234.8c1.1-0.4,2.1-0.9,3.2-1.3c1-0.4,2.1-0.9,3.1-1.4c0.1-0.1,0.2,0,0.3,0.2
		s0.1,0.3,0.1,0.5c-0.4,2.1-0.8,3.9-1.3,5.5l-0.2,0.5c-0.4,1.3-0.6,2.3-0.6,3c0,0.5,0.1,1,0.3,1.5c0.3,0.8,0.8,1.3,1.3,1.5
		s0.9,0.2,1.4,0c0.8-0.3,1.2-0.9,1.2-1.6c0-0.3-0.1-0.7-0.3-1.2c-0.1-0.2,0-0.5,0.1-0.7c0.2-0.2,0.4-0.4,0.7-0.5s0.6,0,0.8,0.4
		c0.3,0.7,0.2,1.5-0.3,2.4c-0.5,0.8-1.1,1.4-1.9,1.8c-1,0.4-1.9,0.5-2.8,0.2c-0.8-0.3-1.3-0.8-1.7-1.6c-0.3-0.7-0.4-1.4-0.3-2
		c0.1-0.6,0.4-1.4,0.8-2.5l0.3-0.7c0.9-1.9,1.4-3.6,1.6-5l-2.7,1.2c-0.7,0.3-1.2,0.6-1.5,0.7c-0.2,0.1-0.4,0.3-0.5,0.5
		c-0.2,0.4-0.3,0.9-0.3,1.7c0,0.1,0,0.1-0.1,0.2c-0.1,0-0.2,0-0.2,0c-0.1,0-0.1,0-0.1-0.1v-0.1C97.1,236.7,97,235.7,97,234.8z"/>
	<path id="XMLID_59_" class="st0" d="M63.7,246.6c0.1,0.1,0.2,0.3,0.4,0.7c0.1,0.2,0.2,0.4,0.3,0.6l1.6,2.7c0.7,1.1,1.1,1.8,1.3,2
		c0.3,0.3,0.7,0.4,1.2,0.5c0.1,0,0.1,0.1,0.1,0.2c0,0.2-0.1,0.3-0.1,0.3c-0.8-0.1-1.6-0.1-2.3-0.1c-0.8,0-1.5,0-2.3,0
		c-0.1,0-0.1-0.1-0.1-0.3c0-0.1,0.1-0.2,0.1-0.2c0.5,0,0.9-0.1,1-0.2c0.1-0.1,0.2-0.2,0.2-0.4s-0.2-0.6-0.5-1.2l-1.6-2.7
		c-0.1-0.2-0.2-0.3-0.3-0.6c-0.1-0.2-0.2-0.4-0.3-0.5c-0.2,0.3-0.4,0.6-0.6,1l-1.5,2.6c-0.4,0.6-0.6,1.1-0.6,1.3s0.1,0.4,0.3,0.5
		c0.2,0.1,0.5,0.2,1,0.2c0.1,0,0.2,0.1,0.2,0.2c0,0.2-0.1,0.3-0.2,0.3c-1.1-0.1-1.8-0.1-2.1-0.1c-0.1,0-0.8,0-1.9,0.1
		c-0.1,0-0.1-0.1-0.1-0.3c0-0.1,0.1-0.2,0.1-0.2c0.5,0,1-0.2,1.3-0.4c0.2-0.2,0.7-0.8,1.4-1.9l1.7-2.6c0.3-0.4,0.5-0.8,0.8-1.3V246
		v-2.4c0-1,0-1.7-0.2-1.9c-0.1-0.2-0.6-0.4-1.5-0.5c-0.1,0-0.1-0.1-0.1-0.2c0-0.2,0-0.2,0.1-0.2c1,0.1,1.9,0.1,2.5,0.1
		c0.7,0,1.4,0,2.2,0c0.1,0,0.2,0.1,0.2,0.2c0,0.1-0.1,0.2-0.2,0.2c-0.7,0-1.1,0.2-1.3,0.4c-0.2,0.2-0.3,0.9-0.3,2.1v2.2L63.7,246.6z
		"/>
	<path id="XMLID_61_" class="st0" d="M51.7,240.5c0.5-0.3,0.9-0.5,1.3-0.6s0.8-0.1,1.3,0c0.7,0.1,1.1,0.3,1.5,0.8
		c0.3,0.4,0.4,0.8,0.3,1.3c-0.1,0.7-0.4,1.2-0.8,1.5c-0.3,0.3-1.1,0.5-2.2,0.7c-0.7,0.1-1.2,0.3-1.5,0.4c-0.3,0.2-0.4,0.4-0.5,0.6
		l-0.1,0.5c-0.2,1.2,0.1,1.9,0.9,2c0.5,0.1,0.9,0,1.3-0.3c0.2-0.2,0.4-0.5,0.4-0.8c0-0.2,0.2-0.4,0.4-0.5c0.2-0.1,0.5-0.1,0.8-0.1
		s0.5,0.2,0.4,0.5c-0.1,0.5-0.5,1-1.3,1.3c-0.7,0.3-1.4,0.4-2.2,0.3c-0.9-0.1-1.6-0.4-1.9-0.8c-0.3-0.4-0.3-1-0.2-1.8l0.5-3.9
		c0.1-1,0-1.5-0.5-1.6c-0.2,0-0.3,0-0.5,0.1c-0.1,0-0.1,0-0.2,0s-0.1,0-0.1-0.1s0-0.1,0-0.2c0,0,0-0.1,0.1-0.1
		c0.5-0.2,0.9-0.3,1.4-0.3C51.2,239.5,51.6,239.9,51.7,240.5z M51.3,244.2c0.2-0.2,0.8-0.4,1.7-0.6c0.6-0.1,1-0.3,1.3-0.6
		c0.2-0.2,0.4-0.6,0.4-1c0.1-0.4,0-0.8-0.3-1.1c-0.2-0.3-0.5-0.4-0.8-0.5c-0.6-0.1-1,0-1.4,0.3c-0.3,0.2-0.5,0.6-0.6,0.9L51.3,244.2
		z"/>
	<path id="XMLID_64_" class="st0" d="M45.1,242.8c-0.5,0.3-0.8,0.5-1.1,0.6l-1.2,0.8c-0.6,0.4-0.9,0.7-1,0.8c0,0.2,0.2,0.4,0.7,0.5
		c0.1,0,0.1,0.1,0.1,0.3c0,0.1-0.1,0.2-0.2,0.2c-0.3-0.1-0.9-0.2-1.6-0.4c-0.5-0.1-1-0.2-1.5-0.3c-0.1,0-0.1-0.1-0.1-0.2
		c0-0.1,0.1-0.2,0.2-0.2c0.4,0.1,0.7,0,1,0c0.3-0.1,0.8-0.3,1.6-0.8l1.1-0.6c0.4-0.3,0.7-0.4,0.9-0.5c-0.7-1.4-1.4-2.6-2-3.7
		c-0.3-0.5-0.6-0.8-0.8-1c-0.1-0.1-0.4-0.2-0.8-0.4c-0.1,0-0.1-0.1-0.1-0.3c0-0.1,0.1-0.2,0.2-0.2c0.7,0.2,1.1,0.3,1.4,0.4
		c0.4,0.1,0.8,0.2,1,0.2c0.2,0.4,0.3,0.7,0.4,0.9c0.7,1.3,1.4,2.5,2,3.6l0.3-1.3c0.2-1.1,0.4-1.7,0.3-1.8c-0.1-0.2-0.4-0.4-0.9-0.6
		c-0.1,0-0.1-0.1-0.1-0.2c0-0.1,0.1-0.2,0.2-0.2c0.7,0.2,1.3,0.3,1.7,0.4c0.4,0.1,1,0.2,1.8,0.4c0.1,0,0.1,0.1,0.1,0.2
		c0,0.1-0.1,0.2-0.2,0.2c-0.5-0.1-0.9,0-1,0.1c-0.1,0.2-0.3,0.7-0.6,1.7l-1.8,7.7c-0.2,0.8-0.2,1.3-0.2,1.5c0.1,0.2,0.2,0.4,0.4,0.4
		l0.6,0.1c0.1,0,0.1,0.1,0.1,0.3c0,0.1-0.1,0.2-0.2,0.2c-0.7,0-1.6,0-2.5,0.2c-0.1,0-0.2-0.1-0.2-0.2c0.4-1.3,0.7-2.7,1-4.1
		L45.1,242.8z"/>
	<path id="XMLID_66_" class="st0" d="M34,249.1c-0.3-0.1-0.5-0.3-0.6-0.6s-0.1-0.5-0.1-0.7c0.1-0.3,0.3-0.5,0.6-0.6
		c0.2-0.1,0.5-0.1,0.7,0c0.3,0.1,0.5,0.3,0.6,0.5s0.1,0.5,0.1,0.7c-0.1,0.3-0.3,0.4-0.6,0.6C34.5,249.1,34.2,249.1,34,249.1z
		 M36.9,241.6c-0.2,0.7-0.3,1.2-0.3,1.4c0,0.3,0.2,0.4,0.4,0.5l0.6,0.2c0.1,0,0.1,0.1,0.1,0.3c0,0.1-0.1,0.2-0.3,0.2
		c-0.9-0.1-1.8-0.1-2.5,0c-0.1,0-0.2-0.1-0.2-0.2c0.4-1.1,0.7-2.1,1-2.9l0.7-2.1c0.3-1.1,0.5-1.7,0.5-1.8c0-0.2-0.3-0.4-0.9-0.6
		c-0.1,0-0.1-0.1-0.1-0.2c0-0.2,0.1-0.2,0.2-0.2c0.7,0.2,1.2,0.4,1.7,0.6c0.5,0.2,1.1,0.3,1.8,0.5c0.1,0,0.1,0.1,0.1,0.3
		c0,0.1-0.1,0.2-0.2,0.1c-0.5-0.1-0.9-0.1-1,0s-0.4,0.7-0.7,1.7L36.9,241.6z"/>
	<path id="XMLID_69_" class="st0" d="M30.1,240.7c-1.1,0.8-2.1,0.9-3.2,0.5c-0.7-0.3-1.2-0.8-1.5-1.4c-0.2-0.6-0.2-1.2,0.1-1.9
		l0.8-1.8l0.4-1c0.4-1,0.6-1.6,0.6-1.8s-0.3-0.4-0.8-0.7c-0.1-0.1-0.1-0.1-0.1-0.2c0-0.1,0.1-0.2,0.2-0.1c0.6,0.3,1.2,0.5,1.6,0.7
		s1,0.4,1.7,0.7c0.1,0,0.1,0.1,0.1,0.2c0,0.1-0.1,0.2-0.2,0.1c-0.5-0.2-0.8-0.2-1-0.1c-0.2,0.1-0.4,0.7-0.8,1.6l-1.1,2.5
		c-0.2,0.4-0.2,0.7-0.2,1c0,0.7,0.4,1.2,1.1,1.4c0.7,0.3,1.3,0.2,2.1-0.2c0.4-0.2,0.7-0.6,0.9-1.1l0.9-2.1c0.4-1,0.6-1.6,0.6-1.7
		c0-0.1-0.1-0.2-0.2-0.3s-0.3-0.2-0.6-0.4c-0.1-0.1-0.1-0.1-0.1-0.2c0-0.1,0.1-0.2,0.2-0.1c0.7,0.3,1.2,0.5,1.6,0.7s1,0.4,1.7,0.7
		c0.1,0,0.1,0.1,0.1,0.2c0,0.1-0.1,0.2-0.2,0.1c-0.5-0.2-0.8-0.2-1-0.1c-0.2,0.1-0.4,0.7-0.8,1.6l-1,2.3c-0.3,0.7-0.4,1.2-0.4,1.4
		c0,0.3,0.1,0.5,0.3,0.5l0.6,0.2c0.1,0,0.1,0.1,0,0.3c0,0.1-0.1,0.1-0.3,0.1c-0.7-0.1-1.6-0.2-2.4-0.2c-0.1,0-0.2-0.1-0.1-0.2
		C29.7,241.5,29.9,241,30.1,240.7z"/>
	<path id="XMLID_71_" class="st0" d="M17.9,242.4c-0.2-0.1-0.4-0.3-0.5-0.6s0-0.5,0.1-0.7c0.1-0.3,0.4-0.4,0.7-0.5s0.5,0,0.7,0.1
		s0.4,0.3,0.5,0.6s0.1,0.5-0.1,0.7c-0.1,0.2-0.3,0.4-0.7,0.5C18.4,242.5,18.1,242.5,17.9,242.4z M22,235.6c-0.3,0.7-0.5,1.1-0.6,1.4
		c0,0.3,0.1,0.4,0.3,0.6l0.6,0.3c0.1,0,0.1,0.1,0,0.3c-0.1,0.1-0.2,0.1-0.3,0.1c-0.9-0.2-1.7-0.4-2.5-0.4c-0.1-0.1-0.2-0.1-0.1-0.2
		c0.6-1,1.1-1.9,1.5-2.7l1-2c0.5-1,0.8-1.5,0.8-1.7s-0.3-0.4-0.8-0.8c-0.1-0.1-0.1-0.1,0-0.2c0.1-0.1,0.2-0.2,0.2-0.1
		c0.6,0.4,1.1,0.6,1.5,0.8c0.5,0.2,1,0.5,1.6,0.8c0.1,0,0.1,0.1,0,0.3c-0.1,0.1-0.1,0.1-0.2,0.1c-0.5-0.2-0.9-0.3-1-0.2
		s-0.5,0.6-1,1.6L22,235.6z"/>
	<path id="XMLID_74_" class="st0" d="M17,231.7c-0.5,0.1-0.9,0.2-1.3,0.2l-1.4,0.3c-0.7,0.2-1.1,0.3-1.2,0.5
		c-0.1,0.2,0.1,0.4,0.5,0.7c0.1,0,0.1,0.1,0,0.3c-0.1,0.1-0.1,0.1-0.2,0.1c-0.3-0.2-0.8-0.5-1.4-0.9c-0.5-0.3-0.9-0.6-1.4-0.8
		c-0.1,0-0.1-0.1,0-0.3c0.1-0.1,0.2-0.2,0.2-0.1c0.4,0.2,0.7,0.3,1,0.3s0.9,0,1.8-0.2l1.2-0.2c0.5-0.1,0.8-0.2,1-0.2
		c-0.2-1.5-0.5-2.9-0.7-4.1c-0.1-0.6-0.3-1-0.5-1.2c-0.1-0.2-0.3-0.4-0.6-0.6c-0.1-0.1-0.1-0.2,0-0.3s0.1-0.1,0.2-0.1
		c0.6,0.4,1,0.7,1.2,0.8c0.4,0.2,0.7,0.4,0.9,0.5c0,0.5,0.1,0.8,0.1,1c0.3,1.4,0.5,2.8,0.7,4l0.7-1.1c0.6-0.9,0.9-1.5,0.9-1.6
		c0-0.2-0.2-0.5-0.7-0.8c-0.1-0.1-0.1-0.2,0-0.3s0.1-0.1,0.2-0.1c0.6,0.4,1.1,0.7,1.4,0.9c0.4,0.2,0.9,0.6,1.6,0.9
		c0.1,0,0.1,0.1,0,0.2c-0.1,0.1-0.1,0.1-0.2,0.1c-0.5-0.2-0.8-0.3-1-0.2s-0.6,0.6-1.1,1.5l-4.2,6.7c-0.4,0.7-0.6,1.1-0.7,1.3
		c0,0.3,0.1,0.4,0.2,0.5l0.5,0.3c0.1,0.1,0.1,0.1,0,0.3c-0.1,0.1-0.2,0.1-0.3,0.1c-0.7-0.3-1.5-0.5-2.4-0.6
		c-0.1-0.1-0.1-0.1-0.1-0.2c0.8-1.1,1.6-2.3,2.3-3.6L17,231.7z"/>
	<path id="XMLID_76_" class="st0" d="M8.8,220.5c0.1,0.1,0.1,0.2,0,0.2c-0.4,0.5-0.7,0.9-0.9,1.1c1.2-0.5,2.2-0.3,3.1,0.4
		c0.6,0.5,1,1.1,1.1,1.7c0.1,0.6-0.1,1.2-0.6,1.7c-0.5,0.6-0.9,1.1-1.2,1.5l-0.8,1c-0.5,0.6-0.7,1-0.8,1.2c-0.1,0.3,0,0.5,0.2,0.6
		l0.5,0.3c0.1,0.1,0.1,0.2,0,0.3s-0.2,0.1-0.3,0.1c-0.7-0.4-1.4-0.8-2.1-1.1c-0.1-0.1-0.1-0.2-0.1-0.2c0.7-0.8,1.3-1.6,1.9-2.4
		l1.1-1.4c0.5-0.6,0.7-1,0.8-1.4c0.1-0.7-0.1-1.2-0.6-1.7c-0.6-0.4-1.2-0.5-2-0.3c-0.3,0.1-0.5,0.2-0.6,0.3s-0.3,0.3-0.5,0.5
		l-1.5,1.9c-0.5,0.6-0.7,1-0.8,1.2c-0.1,0.3,0,0.5,0.2,0.6l0.5,0.3c0.1,0.1,0.1,0.2,0,0.3s-0.2,0.1-0.3,0.1
		c-0.8-0.5-1.5-0.8-2.1-1.1c-0.1-0.1-0.1-0.2,0-0.3c0.6-0.7,1.3-1.5,1.9-2.4l1.5-1.9c0.6-0.8,1-1.3,1-1.5s-0.1-0.4-0.4-0.7l-0.2-0.2
		c-0.1-0.1-0.1-0.2,0-0.3s0.2-0.1,0.3-0.1C7.4,219.8,8.1,220.2,8.8,220.5z"/>
	<path id="XMLID_78_" class="st0" d="M-15.1,214.7c-0.3-0.3-0.6-0.7-1-1.2c-0.3-0.4-0.7-0.8-1.3-1.4c-0.1-0.1,0-0.2,0.1-0.3
		s0.2-0.1,0.3,0c0.5,0.6,0.9,0.8,1.2,0.8s0.7-0.3,1.2-0.7c0.1-0.1,0.1-0.1,0.2-0.1l5.2-4.6c0.7-0.6,1.2-1,1.3-1.2s0.2-0.3,0.3-0.5
		c0-0.2,0-0.3-0.1-0.5s-0.3-0.5-0.5-0.8c-0.1-0.1,0-0.2,0.1-0.3s0.2-0.1,0.3,0c0.6,0.8,1.1,1.4,1.5,1.9s0.9,1,1.5,1.7
		c0.1,0.1,0,0.1-0.1,0.2c-0.1,0.1-0.2,0.1-0.3,0.1c-0.5-0.5-0.9-0.8-1.2-0.7c-0.3,0-0.7,0.3-1.4,0.9l-6.3,5.5l0.1,0.2l6.5-2
		c1.4-0.4,3-0.9,4.6-1.5c0.1,0,0.2,0,0.3,0.1s0.1,0.1,0,0.3c-0.8,1.6-1.5,2.9-2,4l-3.1,6.5l0.1,0.1l5.8-4.9c0.1-0.1,0.2-0.2,0.2-0.2
		c0.8-0.7,1.3-1.2,1.4-1.5c0-0.2,0-0.3-0.1-0.5s-0.2-0.4-0.5-0.8c-0.1-0.1-0.1-0.2,0.1-0.3c0.1-0.1,0.2-0.1,0.3,0
		c0.5,0.7,0.9,1.2,1.2,1.5c0.4,0.4,0.8,0.9,1.4,1.5c0.1,0.1,0,0.2-0.1,0.3s-0.2,0.1-0.3,0c-0.5-0.5-0.8-0.7-1.1-0.6
		c-0.3,0.1-0.5,0.2-0.8,0.3c-0.3,0.2-0.7,0.5-1.2,0.9l-5.6,4.6l-0.1,0.1c-0.5,0.4-0.7,0.7-0.8,1s0.1,0.7,0.6,1.3
		c0.1,0.1,0,0.2-0.1,0.3s-0.3,0.1-0.3,0.1c-0.6-0.7-1-1.2-1.2-1.5c-0.4-0.4-0.7-0.8-1-1.2c0.4-0.6,0.8-1.2,1.1-1.9l2.8-5.7
		c0.2-0.3,0.4-0.8,0.6-1.3c0.3-0.6,0.5-0.9,0.6-1.1c-1.2,0.4-2.1,0.7-2.6,0.8l-5.8,1.9C-13.5,214.1-14.3,214.4-15.1,214.7z"/>
	<path id="XMLID_80_" class="st0" d="M-23,203.5c-1-1.7-1.3-3.5-0.7-5.3c0.5-1.6,1.5-2.8,3.1-3.7c1.8-1.1,3.6-1.3,5.4-0.8
		c1.6,0.5,2.8,1.5,3.7,3c1,1.7,1.2,3.5,0.6,5.3c-0.5,1.6-1.5,2.8-3.1,3.7c-1.8,1-3.6,1.3-5.4,0.7C-20.9,206-22.2,205-23,203.5z
		 M-22.5,203.2c0.8,1.3,1.9,2,3.4,2.1c1.4,0.1,2.7-0.2,4.2-1.1c1.7-1,2.8-2.2,3.2-3.6c0.4-1.2,0.3-2.4-0.4-3.5
		c-0.8-1.3-1.9-2-3.4-2.1c-1.3-0.1-2.7,0.2-4.2,1.1c-1.7,1-2.7,2.2-3.2,3.7C-23.3,200.9-23.2,202.1-22.5,203.2z"/>
	<path id="XMLID_83_" class="st0" d="M-29.8,189c-0.9-2.3-0.9-4.3-0.2-5.9c0.6-1.4,1.8-2.4,3.5-3.1c2-0.8,3.8-0.7,5.4,0.3
		c1.5,0.8,2.6,2.3,3.3,4.3c0.2,0.5,0.4,1.1,0.6,1.6c0.2,0.6,0.4,1.1,0.5,1.6c0.2,0.6,0.5,1.2,0.8,2c0,0.1,0,0.2-0.2,0.2
		c-0.1,0-0.2,0-0.3-0.1c-0.3-0.7-0.6-1.1-0.9-1.1c-0.2-0.1-1,0.2-2.3,0.7l-5.9,2.2c-1.2,0.5-1.9,0.8-2.1,1c-0.2,0.2-0.1,0.7,0.1,1.6
		c0,0.1,0,0.2-0.1,0.2c-0.2,0.1-0.3,0.1-0.3,0c-0.3-0.9-0.5-1.6-0.7-2.1c-0.2-0.4-0.4-0.9-0.6-1.5C-29.6,189.7-29.8,189.1-29.8,189z
		 M-25.8,190.3l6.3-2.4c0.9-0.3,1.4-0.6,1.5-0.9c0.2-0.4,0.1-1.2-0.3-2.2c-0.7-1.8-1.8-2.9-3.3-3.4c-1.3-0.4-2.7-0.4-4.2,0.2
		c-1.8,0.7-2.9,1.7-3.5,3.2c-0.5,1.2-0.4,2.6,0.1,4c0.5,1.3,0.9,2,1.3,2C-27.6,191-26.9,190.8-25.8,190.3z"/>
	<path id="XMLID_86_" class="st0" d="M-22.8,167.2c0.3,1.7,0.6,3.1,0.9,4.4c0.3,1.4,0.7,2.9,1.1,4.5c0,0.1,0,0.2-0.2,0.2
		c-0.1,0-0.2,0-0.3-0.1c-0.1-0.5-0.3-0.8-0.4-0.9c-0.1-0.1-0.2-0.2-0.3-0.3c-0.2-0.1-1,0-2.4,0.3l-6.2,1.4c-0.9,0.2-1.5,0.3-1.7,0.4
		c-0.2,0.1-0.3,0.2-0.4,0.3c-0.2,0.2-0.2,0.7-0.1,1.5c0,0.1,0,0.2-0.2,0.2s-0.3,0-0.3-0.1c-0.2-1.2-0.5-2.7-0.9-4.4
		c-0.4-1.6-0.7-3-1-4.2c1.4-0.5,2.3-0.8,2.7-0.9h0.1c0.1,0,0.2,0.1,0.2,0.2s0,0.1-0.1,0.2c-0.7,0.4-1.2,0.9-1.5,1.5
		c-0.2,0.5-0.2,1.4,0.1,2.8c0.2,0.8,0.4,1.3,0.8,1.4c0.2,0.1,0.7,0,1.5-0.1l3.1-0.7c0-0.2-0.1-0.6-0.2-1.1c-0.3-1.3-0.6-2-0.9-2.2
		c-0.3-0.3-0.7-0.3-1.2-0.3c-0.1,0-0.2,0-0.2-0.2c0-0.2,0-0.3,0.1-0.3c0.8-0.2,1.4-0.3,1.7-0.3c0.5-0.1,1.1-0.3,2-0.5
		c0.1,0,0.2,0.1,0.2,0.2c0,0.1,0,0.2-0.1,0.2c-0.6,0.2-1,0.5-1.2,0.9c-0.2,0.4-0.1,1.1,0.2,2.4c0.1,0.4,0.2,0.7,0.3,1.1l3.1-0.7
		c1.1-0.3,1.8-0.5,2-0.7s0.2-0.4,0.3-0.7c0-0.3,0-0.7-0.2-1.2c-0.2-0.9-0.4-1.5-0.6-2c-0.2-0.4-0.4-0.7-0.7-1
		c-0.4-0.4-1.1-0.7-2.1-0.9c-0.1,0-0.1-0.1-0.1-0.1c0-0.2,0-0.3,0.1-0.4h0.1C-24.9,166.9-23.8,167-22.8,167.2z"/>
	<path id="XMLID_88_" class="st0" d="M-29.5,162.6l2.9-0.3c0.9-0.1,1.5-0.1,1.8-0.2c0.2,0,0.4-0.1,0.5-0.2c0.2-0.2,0.3-0.6,0.3-1.4
		c0-0.1,0.1-0.2,0.2-0.2c0.2,0,0.2,0,0.3,0.2c0,1,0.1,1.8,0.1,2.3c0.1,0.6,0.1,1.4,0.3,2.3c0,0.1-0.1,0.2-0.2,0.2s-0.2,0-0.2-0.1
		c-0.1-0.8-0.3-1.2-0.5-1.3c-0.3-0.1-1.1-0.1-2.4,0l-6.6,0.6c-0.8,0.1-1.3,0.1-1.5,0.2c-0.2,0-0.3,0.1-0.4,0.2
		c-0.1,0.1-0.2,0.3-0.2,0.5c0,0.2-0.1,0.6-0.1,1.1c0,0.1-0.1,0.1-0.2,0.2c-0.2,0-0.3,0-0.3-0.1c0-1-0.1-1.8-0.1-2.4
		c0-0.2-0.1-0.6-0.1-1.2c-0.1-0.5-0.1-1.1-0.2-1.7c-0.1-1.6,0.1-2.8,0.7-3.6c0.5-0.7,1.2-1.1,2.1-1.1c0.8-0.1,1.5,0.1,2.1,0.6
		c0.6,0.4,1,1.1,1.3,1.9c1.4-0.9,2.8-1.8,4.1-2.8c0.7-0.5,1.1-0.9,1.2-1.2c0.1-0.2,0.2-0.6,0.2-1.1c0-0.1,0.1-0.2,0.2-0.2
		c0.2,0,0.2,0,0.2,0.1c0,0.9,0.1,1.4,0.1,1.7c0,0.5,0.1,0.9,0.1,1.2c-0.3,0.1-0.7,0.4-1.3,0.8c-1.3,0.9-2.8,1.9-4.5,3
		c0.1,0.3,0.1,0.6,0.1,0.9C-29.6,161.7-29.5,162.2-29.5,162.6z M-30.1,162.7c0-0.4,0-0.9,0-1.3c-0.1-1.2-0.5-2.2-1.1-2.7
		c-0.5-0.5-1.2-0.7-2-0.6c-1.8,0.2-2.6,1.3-2.4,3.4c0.1,0.8,0.2,1.3,0.5,1.5c0.2,0.1,0.9,0.2,2.1,0.1L-30.1,162.7z"/>
	<path id="XMLID_91_" class="st0" d="M-34.9,150v0.2l7.7,0.4c1.3,0.1,2.1,0,2.4-0.2c0.2-0.1,0.4-0.6,0.5-1.4c0-0.1,0.1-0.1,0.2-0.1
		s0.2,0.1,0.2,0.2c0,0.2,0,0.4-0.1,0.7c-0.1,0.6-0.1,1.1-0.1,1.3s0,0.9-0.1,2.1c0,0.1-0.1,0.2-0.2,0.2s-0.2-0.1-0.2-0.2
		c0-0.7-0.2-1.1-0.4-1.3c-0.3-0.2-1.1-0.4-2.3-0.4l-6.6-0.5c-1-0.1-1.6,0-1.9,0.2s-0.5,0.7-0.6,1.4c0,0.1-0.1,0.2-0.2,0.2
		c-0.2,0-0.3-0.1-0.3-0.2c0.1-0.6,0.1-1.2,0.1-1.7c0-0.6,0.1-1.1,0.1-1.6c0.6-0.3,1.4-0.7,2.3-1.2l6.2-3.8c1.1-0.7,2-1.2,2.6-1.6
		l-2.2-0.1l-5.2-0.3c-1.2-0.1-2,0-2.3,0.2c-0.2,0.1-0.4,0.6-0.5,1.3c-0.1,0.1-0.2,0.1-0.3,0.1c-0.2,0-0.3-0.1-0.3-0.2
		c0.1-1,0.2-1.6,0.2-2c0-0.5,0-1.2,0-2c0-0.1,0.1-0.2,0.3-0.2c0.1,0,0.2,0.1,0.2,0.2c0,0.7,0.1,1.1,0.4,1.2c0.3,0.2,1,0.3,2.3,0.4
		l6.3,0.5c0.4,0,0.7,0,0.9,0c0.5,0,1.3,0.1,2.2,0.1c0.3,0.5,0.4,0.8,0.4,0.8s0,0.1-0.1,0.1c-1,0.5-2,1.1-3.2,1.9L-34.9,150z"/>
	<path id="XMLID_93_" class="st0" d="M-31.3,119.5c0.7,0.2,1.6,0.4,2.7,0.6h0.1c0.1,0,0.1,0.1,0.1,0.3c0,0.1-0.1,0.1-0.2,0.1
		c-0.9,0-1.7,0.2-2.3,0.7c-0.5,0.4-0.9,0.8-1,1.4c-0.2,0.7-0.2,1.3,0.2,1.9c0.3,0.5,0.7,0.8,1.3,0.9c1,0.3,1.9-0.1,2.9-1.2l0.7-0.7
		c0.9-1.1,1.8-1.7,2.6-2c0.7-0.2,1.4-0.3,2.1,0c1.2,0.4,2,1.1,2.4,2.1c0.4,0.9,0.3,2,0,3.2c-0.3,0.9-0.8,1.8-1.5,2.8
		c-0.8,0-1.7-0.1-2.7-0.2H-24c-0.1,0-0.2-0.1-0.1-0.3c0-0.1,0.1-0.1,0.2-0.1c1-0.1,1.9-0.3,2.6-0.9c0.6-0.4,1-1,1.2-1.6
		c0.3-0.8,0.2-1.6-0.2-2.2c-0.3-0.5-0.8-0.9-1.5-1.1c-1-0.3-1.6-0.3-2.2,0c-0.5,0.2-1.1,0.7-1.8,1.5l-0.7,0.7
		c-0.8,0.8-1.5,1.4-2.2,1.6c-0.6,0.2-1.2,0.2-1.9,0c-0.9-0.3-1.6-0.9-1.9-1.8c-0.3-0.8-0.3-1.7,0-2.7c0.1-0.5,0.4-0.9,0.6-1.3
		c0.2-0.3,0.4-0.6,0.5-1C-31.4,119.8-31.4,119.6-31.3,119.5z"/>
	<path id="XMLID_95_" class="st0" d="M-29.8,114.5c0.1-0.3,0.3-0.4,0.6-0.5c0.3-0.1,0.5-0.1,0.7,0c0.3,0.1,0.5,0.3,0.6,0.6
		c0.1,0.2,0.1,0.5,0,0.7c-0.1,0.3-0.3,0.4-0.6,0.6c-0.2,0.1-0.5,0.1-0.7,0c-0.3-0.1-0.4-0.3-0.5-0.6
		C-29.9,114.9-29.9,114.7-29.8,114.5z M-22.6,117.9c-0.7-0.3-1.2-0.4-1.4-0.4c-0.3,0-0.4,0.1-0.5,0.4l-0.2,0.6c0,0.1-0.1,0.1-0.3,0
		c-0.1,0-0.1-0.1-0.1-0.3c0.1-0.9,0.2-1.7,0.2-2.5c0.1-0.1,0.1-0.2,0.2-0.1c1,0.5,2,0.9,2.8,1.2l2.1,0.8c1,0.4,1.6,0.6,1.8,0.6
		c0.2,0,0.4-0.3,0.7-0.9c0.1-0.1,0.1-0.1,0.2-0.1c0.1,0.1,0.2,0.1,0.2,0.2c-0.3,0.7-0.5,1.2-0.7,1.6c-0.2,0.5-0.4,1.1-0.6,1.7
		c0,0.1-0.1,0.1-0.3,0c-0.1,0-0.1-0.1-0.1-0.2c0.1-0.5,0.2-0.9,0.1-1s-0.6-0.4-1.7-0.8L-22.6,117.9z"/>
	<path id="XMLID_98_" class="st0" d="M-21.2,111.1c-0.7-1.1-0.8-2.2-0.3-3.2c0.4-0.7,0.9-1.2,1.5-1.4c0.6-0.2,1.2-0.1,1.9,0.2
		l1.8,0.9l1,0.5c1,0.5,1.5,0.7,1.7,0.7s0.4-0.2,0.7-0.7c0.1-0.1,0.1-0.1,0.3-0.1c0.1,0.1,0.1,0.1,0.1,0.2c-0.3,0.6-0.6,1.1-0.8,1.5
		c-0.2,0.4-0.5,1-0.8,1.6c0,0.1-0.1,0.1-0.2,0.1c-0.1-0.1-0.1-0.1-0.1-0.2c0.2-0.5,0.2-0.8,0.1-1s-0.6-0.5-1.6-1l-2.5-1.2
		c-0.4-0.2-0.7-0.3-1-0.3c-0.7,0-1.2,0.3-1.5,1c-0.3,0.6-0.3,1.3,0.1,2.1c0.2,0.4,0.6,0.7,1.1,1l2.1,1c1,0.5,1.5,0.7,1.7,0.7
		c0.1,0,0.2-0.1,0.3-0.2c0.1-0.1,0.2-0.3,0.4-0.6c0.1-0.1,0.1-0.1,0.2,0s0.2,0.1,0.1,0.2c-0.3,0.6-0.6,1.1-0.8,1.5
		c-0.2,0.4-0.5,1-0.8,1.6c0,0.1-0.1,0.1-0.2,0s-0.1-0.1-0.1-0.2c0.2-0.5,0.2-0.8,0.1-1s-0.6-0.5-1.6-1l-2.2-0.9
		c-0.7-0.3-1.1-0.5-1.4-0.5s-0.5,0.1-0.6,0.3l-0.2,0.6c-0.1,0.1-0.2,0.1-0.3,0c-0.1,0-0.1-0.1-0.1-0.3c0.2-0.7,0.3-1.5,0.4-2.4
		c0.1-0.1,0.1-0.1,0.2-0.1C-21.9,110.8-21.5,111-21.2,111.1z"/>
	<path id="XMLID_100_" class="st0" d="M-16.6,99.5c0.4-0.6,0.9-1.1,1.4-1.5c0.4-0.3,0.7-0.3,1-0.2c0.3,0.2,0.5,0.4,0.6,0.6
		s0.1,0.3,0,0.5c-0.1,0.2-0.5,0.3-1.1,0.3h-0.2c-0.6,0-1,0.2-1.3,0.6c-0.4,0.6-0.4,1.3,0,2c0.3,0.7,1,1.3,1.8,1.9
		c0.9,0.6,1.8,0.8,2.7,0.6c0.7-0.1,1.2-0.4,1.6-1c0.3-0.5,0.5-1,0.5-1.4s-0.1-0.8-0.3-1.3c0-0.1,0-0.1,0-0.2s0.1-0.1,0.2-0.1
		c0.1,0,0.1,0,0.2,0c0,0,0,0,0.1,0.1c0.6,1.3,0.6,2.5-0.1,3.6c-0.6,1-1.5,1.5-2.6,1.7c-1,0.1-2-0.1-2.9-0.7
		c-1.1-0.7-1.8-1.7-2.1-2.8C-17.3,101.3-17.1,100.4-16.6,99.5z"/>
	<path id="XMLID_102_" class="st0" d="M-10.1,96.3c0.2,0.2,0.4,0.4,0.5,0.5c0.8,0.7,1.7,0.9,2.6,0.9c0.8-0.1,1.3-0.4,1.7-0.9
		c0.6-0.8,0.8-1.7,0.5-2.7c0-0.1,0-0.1,0-0.1c0-0.1,0.1-0.1,0.2-0.1c0.1,0,0.1,0,0.2,0c0.1,0,0.1,0.1,0.1,0.2
		c0.4,1.3,0.2,2.4-0.5,3.4S-6.5,99-7.6,99c-1,0-2-0.3-2.9-1c-1-0.8-1.6-1.8-1.8-3c-0.1-1,0.1-1.9,0.7-2.7c0.6-0.8,1.3-1.2,2.3-1.2
		c0.8-0.1,1.5,0.2,2.2,0.6C-7,91.8-7,91.8-7,91.9c0,0.1,0,0.1,0,0.2C-7.8,93-8.5,94-9.2,94.9C-9.6,95.5-9.9,96-10.1,96.3z
		 M-10.6,95.8c0.2-0.3,0.5-0.7,0.9-1.2c0.5-0.6,1-1.3,1.4-1.9c0.1-0.1,0-0.2-0.1-0.3c-0.5-0.4-1.1-0.5-1.6-0.5s-0.8,0.2-1.1,0.6
		c-0.3,0.4-0.4,0.9-0.3,1.5C-11.3,94.7-11,95.3-10.6,95.8z"/>
	<path id="XMLID_105_" class="st0" d="M6.1,85.5c-0.9,0.8-1.7,1.5-2.5,2.3c-0.8,0.8-1.6,1.6-2.4,2.4c-0.1,0.1-0.2,0.1-0.4-0.1
		c-0.1-0.1-0.2-0.3-0.2-0.4c-0.3-2.1-0.6-4-0.7-5.6v-0.5c-0.1-1.3-0.2-2.3-0.4-3c-0.2-0.5-0.4-0.9-0.8-1.3c-0.6-0.6-1.2-0.9-1.8-1
		c-0.5,0-0.9,0.1-1.3,0.5C-5,79.4-5.2,80-5,80.7c0.1,0.3,0.3,0.6,0.7,1c0.2,0.2,0.2,0.4,0.1,0.7c-0.1,0.3-0.2,0.5-0.4,0.7
		c-0.3,0.3-0.5,0.2-0.8-0.1c-0.5-0.6-0.7-1.4-0.6-2.4c0.1-0.9,0.5-1.7,1.2-2.3c0.8-0.7,1.6-1.1,2.6-1.1c0.8,0,1.5,0.3,2.1,1
		c0.5,0.6,0.9,1.2,1,1.8C1,80.6,1,81.5,1,82.6l-0.1,0.7c-0.2,2.1-0.1,3.9,0.2,5.3l2.2-2.1c0.6-0.5,1-0.9,1.1-1.2
		c0.1-0.2,0.2-0.4,0.3-0.6c0.1-0.4,0-1-0.3-1.7c0-0.1,0-0.1,0-0.2c0.1-0.1,0.1-0.1,0.2-0.1c0.1,0,0.1,0,0.2,0l0.1,0.1
		C5.3,83.8,5.7,84.7,6.1,85.5z"/>
	<path id="XMLID_107_" class="st0" d="M3.4,71.3c0.9-0.7,2.1-0.8,3.4-0.3c1.3,0.5,2.5,1.5,3.7,3.1c1.4,1.8,2.1,3.4,2.1,4.9
		c0,1.2-0.4,2.1-1.2,2.7c-1,0.8-2.2,0.9-3.5,0.3c-1.2-0.5-2.4-1.5-3.5-3.1C3,77.1,2.3,75.4,2.3,74C2.1,72.9,2.5,71.9,3.4,71.3z
		 M3.7,71.7c-1.2,0.9-0.6,3,1.8,6.2C6.9,79.7,8,80.8,9,81.3c0.8,0.4,1.4,0.4,2-0.1s0.8-1.2,0.5-2.3c-0.3-1-1.1-2.3-2.3-3.9
		C6.7,72,4.9,70.8,3.7,71.7z"/>
	<path id="XMLID_110_" class="st0" d="M21.6,74.6c-1,0.6-2,1.1-3,1.7s-1.9,1.2-2.9,1.8c-0.1,0.1-0.2,0-0.4-0.2
		c-0.1-0.1-0.1-0.3-0.1-0.4c0.1-2.1,0.3-4,0.5-5.6l0.1-0.5c0.2-1.3,0.3-2.3,0.2-3c-0.1-0.5-0.2-1-0.5-1.5c-0.4-0.7-0.9-1.2-1.5-1.3
		c-0.5-0.1-0.9-0.1-1.4,0.2c-0.7,0.4-1,1-1,1.7c0,0.3,0.2,0.7,0.5,1.2c0.1,0.2,0.1,0.4,0,0.7c-0.1,0.2-0.3,0.4-0.6,0.6
		c-0.3,0.2-0.6,0.1-0.8-0.3c-0.4-0.7-0.4-1.5,0-2.5c0.3-0.9,0.9-1.6,1.6-2c0.9-0.6,1.8-0.8,2.7-0.6c0.8,0.2,1.4,0.6,1.9,1.4
		c0.4,0.7,0.6,1.3,0.6,2c0,0.6-0.2,1.5-0.5,2.5l-0.2,0.7c-0.6,2-0.9,3.8-0.9,5.2l2.6-1.5c0.7-0.4,1.1-0.7,1.4-0.9
		c0.2-0.2,0.3-0.4,0.4-0.6c0.2-0.4,0.2-1,0.1-1.7c0-0.1,0-0.1,0.1-0.2c0.1,0,0.1-0.1,0.2-0.1c0.1,0,0.1,0,0.1,0v0.1
		C21.1,72.7,21.4,73.7,21.6,74.6z"/>
	<path id="XMLID_112_" class="st0" d="M30.1,70.4c-1.1,0.5-2.1,0.9-3.2,1.4c-1,0.5-2,1-3,1.5c-0.1,0.1-0.2,0-0.3-0.2
		c-0.1-0.2-0.1-0.3-0.1-0.5c0.3-2.1,0.7-4,1.1-5.6l0.1-0.5c0.4-1.3,0.5-2.3,0.5-3c0-0.5-0.1-1-0.4-1.5c-0.4-0.8-0.8-1.3-1.4-1.5
		c-0.5-0.2-0.9-0.2-1.4,0.1c-0.7,0.3-1.1,0.9-1.1,1.6c0,0.3,0.1,0.7,0.4,1.2c0.1,0.2,0.1,0.5-0.1,0.7c-0.1,0.2-0.4,0.4-0.7,0.5
		c-0.3,0.2-0.6,0-0.8-0.3c-0.3-0.7-0.2-1.5,0.2-2.5c0.4-0.8,1-1.5,1.9-1.8c1-0.5,1.9-0.6,2.8-0.3c0.8,0.3,1.4,0.8,1.7,1.6
		c0.3,0.7,0.5,1.4,0.4,2c0,0.8-0.2,1.6-0.7,2.6l-0.3,0.7c-0.8,2-1.3,3.6-1.5,5.1l2.7-1.3c0.7-0.3,1.2-0.6,1.4-0.8
		c0.2-0.1,0.4-0.3,0.5-0.5c0.2-0.4,0.3-1,0.3-1.7c0-0.1,0-0.1,0.1-0.2c0.1,0,0.2,0,0.2,0c0.1,0,0.1,0,0.1,0.1v0.1
		C29.8,68.5,30,69.5,30.1,70.4z"/>
</g>
</svg>
