<?xml version="1.0" ?><svg data-name="Layer 1" id="Layer_1" viewBox="0 0 512 512" xmlns="http://www.w3.org/2000/svg"><title/><rect fill="#518ef7" height="412.22" rx="55.43" width="412.22" x="49.89" y="49.89"/><path d="M149.35,185.93H268.53A43.06,43.06,0,0,1,311.59,229V308.6a17.47,17.47,0,0,1-17.47,17.47H174.93A43.06,43.06,0,0,1,131.87,283V203.4A17.47,17.47,0,0,1,149.35,185.93Z" fill="#fefefe"/><path d="M366.38,324.53,327.6,291.3A14.24,14.24,0,0,1,322,280v-44a14.24,14.24,0,0,1,5.64-11.34l38.78-37.13a8.8,8.8,0,0,1,13.75,7.27V317.26A8.8,8.8,0,0,1,366.38,324.53Z" fill="#fefefe"/></svg>