<?xml version="1.0" encoding="utf-8"?>
<!-- Generator: Adobe Illustrator 19.0.0, SVG Export Plug-In . SVG Version: 6.00 Build 0)  -->
<svg version="1.1" id="text" xmlns="http://www.w3.org/2000/svg" xmlns:xlink="http://www.w3.org/1999/xlink" x="0px" y="0px"
	 viewBox="0 0 862 95" style="enable-background:new 0 0 862 95;" xml:space="preserve">
<g id="XMLID_2_">
	<path id="XMLID_3_" d="M6,89v-2.9c3.7-0.1,6.3-1,7.8-2.8c1.5-1.7,2.3-4.6,2.3-8.7V24.5c0-4-0.8-6.9-2.3-8.6
		c-1.5-1.7-4.1-2.6-7.8-2.8v-2.9h68v21.5h-3.1C70,25.6,68,21.4,65,18.9c-3-2.4-7.9-3.7-14.8-3.7h-9.6v30.9h1.4
		c4.8,0,8.5-1.2,10.9-3.6c2.4-2.4,3.9-6.3,4.5-11.6h3.1v35.6h-3.1c-0.6-5.4-2.1-9.3-4.5-11.7c-2.4-2.4-6-3.6-10.9-3.6h-1.4v23.5
		c0,4,0.8,6.9,2.3,8.7c1.6,1.7,4.1,2.6,7.8,2.8V89H6z"/>
	<path id="XMLID_5_" d="M107.8,32.4v39.1c0,3.9,0.4,6.4,1.1,7.6c0.8,1.2,2.2,1.8,4.2,1.8c1.4,0,2.8-0.4,4.1-1.2c1.3-0.8,2.7-2,4-3.7
		V44.6c0-3.3-0.4-5.6-1.1-6.9c-0.8-1.3-2.1-2.1-4.1-2.6v-2.7h25.7V72c0,3,0.5,5.3,1.5,6.7c1,1.5,2.7,2.4,5,2.8v2.7
		c-4.6,0.6-9.1,1.5-13.5,2.5c-4.4,1-8.7,2.3-12.9,3.8l-0.3-7.9c-2.6,2.7-5.5,4.7-8.5,6c-3,1.3-6.3,2-9.9,2c-5.4,0-9.4-1.7-11.9-5
		c-2.5-3.4-3.8-8.6-3.8-15.8V45.7c0-3.4-0.5-6-1.5-7.6c-1-1.6-2.7-2.6-5.1-3.1v-2.7H107.8z"/>
	<path id="XMLID_7_" d="M181.1,55.2v22c0,2.8,0.5,4.8,1.5,6.2c1,1.4,2.6,2.4,4.9,3V89h-33.4v-2.7c2.3-0.6,4-1.6,5-3
		c1-1.4,1.5-3.5,1.5-6.2V44.6c0-3-0.5-5.3-1.5-6.8c-1-1.5-2.7-2.4-5-2.8v-2.7h26l0.2,8.6c2-3.5,4-6.1,6.2-7.7
		c2.1-1.6,4.6-2.4,7.3-2.4c2.6,0,4.7,0.9,6.2,2.6c1.6,1.7,2.4,4,2.4,6.8c0,2.8-0.7,5-2.2,6.6c-1.4,1.6-3.4,2.4-5.8,2.4
		c-1.8,0-3.8-0.7-5.8-2c-2.1-1.4-3.4-2-4.1-2c-1.3,0-2.2,0.7-2.7,2.1C181.4,48.7,181.1,51.4,181.1,55.2z"/>
	<path id="XMLID_9_" d="M232.9,38.8c2.7-2.6,5.6-4.7,8.8-6c3.2-1.4,6.4-2.1,9.8-2.1c5.3,0,9.2,1.7,11.8,5.2
		c2.6,3.4,3.9,8.7,3.9,15.9v23.9c0,3.5,0.5,6.1,1.5,7.7c1,1.6,2.7,2.6,5,3.1V89h-31.6v-2.7c1.7-0.5,2.9-1.5,3.6-2.9
		c0.7-1.4,1-3.9,1-7.3V49.9c0-3.9-0.4-6.5-1.1-7.7c-0.7-1.2-2.1-1.8-4.1-1.8c-1.3,0-2.7,0.4-4.1,1.3c-1.5,0.9-2.9,2.1-4.2,3.7v31.4
		c0,3.3,0.4,5.6,1.1,7c0.8,1.4,2.1,2.3,4,2.7V89h-32.1v-2.7c2.3-0.6,4-1.6,5-3c1-1.4,1.5-3.5,1.5-6.2V44.6c0-3-0.5-5.3-1.5-6.8
		c-1-1.5-2.7-2.4-5-2.8v-2.7h26.3L232.9,38.8z"/>
	<path id="XMLID_11_" d="M307.1,32.4v44.8c0,2.7,0.5,4.8,1.5,6.2c1,1.4,2.7,2.4,5,3V89h-33.9v-2.7c2.3-0.6,4-1.6,5-3
		c1-1.4,1.5-3.5,1.5-6.2V44.6c0-3-0.5-5.3-1.5-6.8c-1-1.5-2.7-2.4-5-2.8v-2.7H307.1z M285.2,16.6c0-2.8,1-5.2,3-7.2c2-2,4.4-3,7.3-3
		c2.8,0,5.2,1,7.2,3s3,4.4,3,7.2s-1,5.2-3,7.2c-2,2-4.4,3-7.2,3c-2.8,0-5.2-1-7.2-3.1S285.2,19.4,285.2,16.6z"/>
	<path id="XMLID_14_" d="M325.7,38.5h-6.2v-4.7c5.1-1.6,9.5-4.3,13.2-8c3.7-3.7,6.5-8.2,8.4-13.5h5.1v20h10.7v6.1h-10.7v34.2
		c0,3,0.4,5.2,1.1,6.6c0.7,1.4,1.9,2.1,3.5,2.1c0.8,0,1.7-0.3,2.6-0.9s1.9-1.4,2.9-2.4l2.9,2.4c-2.9,3.4-5.8,5.8-8.8,7.4
		c-3,1.6-6.2,2.4-9.6,2.4c-5.1,0-8.9-1.4-11.4-4.2c-2.5-2.8-3.8-7-3.8-12.7V38.5z"/>
	<path id="XMLID_16_" d="M388.5,32.4v39.1c0,3.9,0.4,6.4,1.1,7.6c0.8,1.2,2.2,1.8,4.2,1.8c1.4,0,2.8-0.4,4.1-1.2
		c1.3-0.8,2.7-2,4-3.7V44.6c0-3.3-0.4-5.6-1.1-6.9c-0.8-1.3-2.1-2.1-4.1-2.6v-2.7h25.7V72c0,3,0.5,5.3,1.5,6.7s2.7,2.4,5,2.8v2.7
		c-4.6,0.6-9.1,1.5-13.5,2.5c-4.4,1-8.7,2.3-12.9,3.8l-0.3-7.9c-2.6,2.7-5.5,4.7-8.5,6c-3,1.3-6.3,2-9.9,2c-5.4,0-9.4-1.7-11.9-5
		c-2.5-3.4-3.8-8.6-3.8-15.8V45.7c0-3.4-0.5-6-1.5-7.6c-1-1.6-2.7-2.6-5.1-3.1v-2.7H388.5z"/>
	<path id="XMLID_18_" d="M461.8,55.2v22c0,2.8,0.5,4.8,1.5,6.2c1,1.4,2.6,2.4,4.9,3V89h-33.4v-2.7c2.3-0.6,4-1.6,5-3
		c1-1.4,1.5-3.5,1.5-6.2V44.6c0-3-0.5-5.3-1.5-6.8s-2.7-2.4-5-2.8v-2.7h26l0.2,8.6c2-3.5,4-6.1,6.2-7.7c2.1-1.6,4.6-2.4,7.3-2.4
		c2.6,0,4.7,0.9,6.2,2.6c1.6,1.7,2.4,4,2.4,6.8c0,2.8-0.7,5-2.2,6.6c-1.4,1.6-3.4,2.4-5.8,2.4c-1.8,0-3.8-0.7-5.8-2
		c-2.1-1.4-3.4-2-4.1-2c-1.3,0-2.2,0.7-2.7,2.1C462,48.7,461.8,51.4,461.8,55.2z"/>
	<path id="XMLID_20_" d="M539.8,71.9c-2.5,6-5.8,10.6-10.1,13.8c-4.3,3.2-9.2,4.8-14.9,4.8c-8,0-14.5-2.7-19.5-8.2
		c-5-5.5-7.5-12.6-7.5-21.4c0-3.4,0.4-6.7,1.3-9.7c0.9-3,2.2-5.8,3.9-8.4c2.5-3.7,5.7-6.5,9.5-8.6c3.9-2.1,8-3.1,12.3-3.1
		c7.5,0,13.3,2.4,17.5,7.3c4.2,4.9,6.4,11.7,6.7,20.5l-30.5,0.1c0.3,6.2,1.8,11.1,4.5,14.7s6.3,5.4,10.7,5.4c2.4,0,4.7-0.7,6.8-2.2
		c2.1-1.5,4-3.6,5.7-6.5L539.8,71.9z M508.4,54.1h12.9c-0.1-6.1-0.7-10.7-1.7-13.8c-1.1-3.2-2.6-4.7-4.7-4.7c-2,0-3.6,1.6-4.7,4.8
		C509,43.6,508.5,48.2,508.4,54.1z"/>
	<path id="XMLID_23_" d="M548.8,68V53.5h29.8V68H548.8z"/>
	<path id="XMLID_25_" d="M591,89V67.9h2.6c0.9,5,3,9.1,6.3,12.4c3.3,3.3,6.6,5,10.2,5c2,0,3.5-0.6,4.7-1.7c1.2-1.2,1.8-2.7,1.8-4.6
		c0-1.4-0.4-2.8-1.3-4c-0.9-1.2-2.7-2.9-5.6-5c-0.6-0.5-1.6-1.1-2.8-2c-5.4-3.9-9.2-6.8-11.5-9c-1.7-1.6-2.9-3.4-3.8-5.4
		s-1.3-4.1-1.3-6.3c0-4.7,1.8-8.6,5.3-11.7c3.5-3.1,8-4.7,13.5-4.7c2.8,0,5.7,0.5,8.8,1.4c3.1,1,4.9,1.4,5.2,1.4
		c0.8,0,1.5-0.2,2.1-0.5c0.6-0.3,1.3-0.9,1.9-1.7h2.6v17.8h-2.7c-1.2-4-3.2-7.4-6-10c-2.8-2.6-5.7-3.9-8.8-3.9c-1.7,0-3,0.4-4,1.3
		c-1,0.9-1.5,2.1-1.5,3.5c0,2.3,3.3,5.8,9.8,10.2c0.6,0.5,1.1,0.8,1.5,1c0.7,0.5,1.7,1.1,3,2c4.5,2.9,7.6,5.6,9.2,7.8
		c1.1,1.5,1.9,3.2,2.5,5.1c0.6,1.9,0.9,3.9,0.9,6c0,5.1-1.8,9.3-5.5,12.8c-3.7,3.4-8.2,5.2-13.6,5.2c-3.5,0-7-0.7-10.6-2.1
		c-3.6-1.4-5.6-2.1-6.1-2.1c-0.8,0-1.5,0.2-2.2,0.7c-0.6,0.5-1.2,1.2-1.6,2.1H591z"/>
	<path id="XMLID_27_" d="M647.1,38.5h-6.2v-4.7c5.1-1.6,9.5-4.3,13.2-8c3.7-3.7,6.5-8.2,8.4-13.5h5.1v20h10.7v6.1h-10.7v34.2
		c0,3,0.4,5.2,1.1,6.6s1.9,2.1,3.5,2.1c0.8,0,1.7-0.3,2.6-0.9s1.9-1.4,2.9-2.4l2.9,2.4c-2.9,3.4-5.8,5.8-8.8,7.4
		c-3,1.6-6.2,2.4-9.6,2.4c-5.1,0-8.9-1.4-11.4-4.2c-2.5-2.8-3.8-7-3.8-12.7V38.5z"/>
	<path id="XMLID_29_" d="M684.8,60.7c0-8.8,2.7-15.9,8.1-21.4c5.4-5.5,12.3-8.3,20.9-8.3c8.5,0,15.5,2.8,20.9,8.3
		c5.4,5.5,8.1,12.7,8.1,21.5c0,8.8-2.7,16-8.1,21.5c-5.4,5.5-12.3,8.3-20.9,8.3c-8.4,0-15.4-2.8-20.8-8.4
		C687.5,76.5,684.8,69.4,684.8,60.7z M706.4,60.8c0,10.1,0.5,16.9,1.6,20.3c1.1,3.4,3,5.2,5.7,5.2c2.8,0,4.7-1.8,5.8-5.3
		c1.1-3.5,1.6-10.3,1.6-20.2c0-9.9-0.5-16.7-1.6-20.2c-1.1-3.5-3-5.2-5.8-5.2c-2.7,0-4.6,1.7-5.7,5C707,43.7,706.4,50.5,706.4,60.8z
		"/>
	<path id="XMLID_32_" d="M777.1,55.2v22c0,2.8,0.5,4.8,1.5,6.2c1,1.4,2.6,2.4,4.9,3V89h-33.4v-2.7c2.3-0.6,4-1.6,5-3
		c1-1.4,1.5-3.5,1.5-6.2V44.6c0-3-0.5-5.3-1.5-6.8s-2.7-2.4-5-2.8v-2.7h26l0.2,8.6c2-3.5,4-6.1,6.2-7.7c2.1-1.6,4.6-2.4,7.3-2.4
		c2.6,0,4.7,0.9,6.2,2.6c1.6,1.7,2.4,4,2.4,6.8c0,2.8-0.7,5-2.2,6.6c-1.4,1.6-3.4,2.4-5.8,2.4c-1.8,0-3.8-0.7-5.8-2
		c-2.1-1.4-3.4-2-4.1-2c-1.3,0-2.2,0.7-2.7,2.1C777.3,48.7,777.1,51.4,777.1,55.2z"/>
	<path id="XMLID_34_" d="M855.1,71.9c-2.5,6-5.8,10.6-10.1,13.8c-4.3,3.2-9.2,4.8-14.9,4.8c-8,0-14.5-2.7-19.5-8.2
		c-5-5.5-7.5-12.6-7.5-21.4c0-3.4,0.4-6.7,1.3-9.7c0.9-3,2.2-5.8,3.9-8.4c2.5-3.7,5.7-6.5,9.5-8.6c3.9-2.1,8-3.1,12.3-3.1
		c7.5,0,13.3,2.4,17.5,7.3c4.2,4.9,6.4,11.7,6.7,20.5l-30.5,0.1c0.3,6.2,1.8,11.1,4.5,14.7s6.3,5.4,10.7,5.4c2.4,0,4.7-0.7,6.8-2.2
		c2.1-1.5,4-3.6,5.7-6.5L855.1,71.9z M823.7,54.1h12.9c-0.1-6.1-0.7-10.7-1.7-13.8c-1.1-3.2-2.6-4.7-4.7-4.7c-2,0-3.6,1.6-4.7,4.8
		C824.3,43.6,823.7,48.2,823.7,54.1z"/>
</g>
</svg>
