<?xml version="1.0" encoding="utf-8"?>
<!-- Generator: Adobe Illustrator 19.0.0, SVG Export Plug-In . SVG Version: 6.00 Build 0)  -->
<svg version="1.1" id="レイヤー_1" xmlns="http://www.w3.org/2000/svg" xmlns:xlink="http://www.w3.org/1999/xlink" x="0px"
	 y="0px" viewBox="0 0 72.9 76.4" style="enable-background:new 0 0 72.9 76.4;" xml:space="preserve">
<style type="text/css">
	.st0{fill:#3D8127;}
</style>
<g>
	<path class="st0" d="M26.1,3.3c3.7-5.3,7.8-3.4,11,0c3.4,4,6.8,8,10.4,12.1c0.9-0.5,1.9-1.1,2.8-1.7c9.6-6.6,13.1-6.3,21.8,1.5
		c0.8,0.8,1.3,2.3,0,3c-5.4,1.1-10.8,2.8-16.3,3.2c-7,0.5-8.6,2.2-6.1,8.7c7,18.3-2.3,38-20.8,44c-0.9,0.3-1.8,0.7-2.8,1.1
		c-4.1,1.1-7.3,1.8-13,0c-5.7-2.3-9.6-6.4-12-12c-1.3-4.1-1.5-8.7,0-13c2.2-5.5,4.5-11,6.7-16.5c5-12.2,13-16.7,26-14.4
		c3,0.5,5.9,1.6,8.9,2.4c0.3-0.3,0.6-0.7,0.9-1c-1.2-1.2-2.3-2.9-3.7-3.6c-2.7-1.2-5.6-1.9-8.6-2.5C23.8,13.3,22.2,10,26.1,3.3z
		 M29,62.8c1.2,4.2,3.8,5,8,4.1c4.2-0.9,4.5-3.8,5.1-6.9c0.9-5.1,1.8-10.2,2.9-15.2c0.9-4.1-0.9-5.4-4.7-5.4
		c-3.2-0.1-4.4,1.6-4.9,4.4c-0.6,3.8-1.4,7.5-2,10.7c-2.8-2.3-5.2-5.8-7.4-5.6C23.8,49,21.7,52.5,19,55c-0.3-4.1-0.5-8-0.8-12
		c-0.3-4.2-3.4-3.2-6-3.2c-2.7,0-4.6,0.7-4,4.1c0.9,4.7,1.7,9.5,2.6,14.3c1.7,9.1,2.8,10,11.8,8.2C24.6,66,26.4,64.3,29,62.8z
		 M24.5,27c0,0.6,0,1.2,0,1.8c-2.2,0.6-4.5,0.9-6.5,1.8c-1.3,0.6-2.3,2.1-3.4,3.2c1.2,1.2,2.4,3.3,3.7,3.4c3.4,0.3,6.8-0.2,10.7-0.4
		c-0.5-4.5,1.5-9.2-3.3-11.6c-3-1.5-6.6-1.6-9.9,1.9C19.1,27,21.8,27,24.5,27z M34,24.5c-0.5,0-1,0-1.4,0.1c0,3.8,0,7.6,0,11.3
		c0.5,0,1,0,1.4,0C34,32.1,34,28.3,34,24.5z M37.4,35.7c0.4,0,0.9,0,1.3,0c0-3.7,0-7.3,0-11c-0.4,0-0.9,0-1.3,0
		C37.4,28.4,37.4,32.1,37.4,35.7z"/>
	<path class="st0" d="M18,32.6c2.2-0.5,4.5-1,7.2-1.6C23.8,36,22.2,36.5,18,32.6z"/>
</g>
</svg>
